<svg aria-hidden="true" style="position: absolute; width: 0; height: 0; overflow: hidden;" version="1.1" xmlns="http://www.w3.org/2000/svg" xmlns:xlink="http://www.w3.org/1999/xlink">
<defs>
<symbol id="apple" viewBox="0 0 28 32">
<title>Apple</title>
<path d="M0.224 19.762c0.005-0.019 0.007-0.041 0.007-0.064 0-0.008-0-0.015-0.001-0.023l0 0.001c-0.365-1.362-0.227-2.739-0.056-4.102 0.176-1.398 0.555-2.742 1.308-3.968 0.561-0.913 1.359-1.54 2.234-2.101 0.075-0.048 0.196-0.028 0.296-0.039-0.028 0.090-0.063 0.179-0.079 0.272-0.033 0.166-0.044 0.338-0.091 0.5-0.022 0.079-0.109 0.136-0.158 0.21-0.007 0.010 0.038 0.071 0.070 0.086 0.112 0.053 0.227 0.096 0.342 0.142 0.035 0.013 0.071 0.024 0.105 0.036 0-0.036 0-0.073 0-0.109-0.003-0.030-0.007-0.057-0.013-0.083l0.001 0.004c0.029-0.005 0.057-0.008 0.085-0.014 0.097-0.021 0.193-0.045 0.29-0.064 0.042-0.006 0.091-0.009 0.141-0.009 0 0 0 0 0 0h-0c-0.015 0.023-0.028 0.049-0.037 0.077l-0.001 0.002c-0 0.005-0 0.011-0 0.016 0 0.025 0.003 0.050 0.010 0.073l-0-0.002c0.136-0.018 0.275-0.029 0.409-0.058 0.102-0.029 0.189-0.062 0.272-0.101l-0.011 0.005c0.011 0.108 0.021 0.215 0.036 0.322 0 0.017 0.038 0.044 0.052 0.040 0.079-0.017 0.15-0.045 0.225-0.065 0.033-0.005 0.070-0.009 0.108-0.009h0c-0.050 0.050-0.087 0.122-0.195 0.079-0.348-0.142-0.746 0.092-0.727 0.467 0.005 0.079-0.052 0.050-0.086 0.065-0.106 0.035-0.198 0.080-0.282 0.137l0.004-0.002c-0.162 0.141-0.31 0.287-0.449 0.44l-0.004 0.004c-0.032 0.034-0.022 0.108-0.031 0.163 0.040-0.011 0.079-0.023 0.118-0.033s0.064-0.011 0.096-0.017c-0.008 0.039-0.020 0.074-0.037 0.106l0.001-0.002c-0.178 0.238-0.396 0.454-0.527 0.713s-0.158 0.555-0.238 0.831c-0.038 0.138-0.086 0.273-0.113 0.413-0.009 0.044 0.037 0.098 0.060 0.147 0 0.007 0.024 0.012 0.024 0.013-0.048 0.148-0.095 0.296-0.145 0.444-0.013 0.037-0.061 0.087-0.050 0.105 0.073 0.114 0.145 0.212 0.221 0.306l-0.004-0.005c0.025 0.030 0.095 0.045 0.095 0.067-0.002 0.056-0.021 0.108-0.051 0.15l0.001-0.001c-0.009 0.012-0.079-0.017-0.115-0.028-0.022-0.006-0.044-0.014-0.066-0.021-0.010 0.048-0.044 0.112-0.025 0.139 0.070 0.093 0.144 0.176 0.224 0.252l0.001 0.001s0.037-0.035 0.059-0.051c0.040-0.030 0.079-0.079 0.125-0.079 0.029 0 0.089 0.063 0.088 0.096-0.005 0.077-0.027 0.148-0.061 0.21l0.001-0.003c-0.017 0.033-0.071 0.048-0.107 0.072 0.124 0.124 0.245 0.251 0.377 0.364 0.014 0.012 0.147-0.067 0.143-0.089-0.036-0.148-0.074-0.272-0.12-0.392l0.007 0.021c-0.005-0.013-0.020-0.032-0.015-0.040 0.009-0.012 0.024-0.019 0.040-0.019 0 0 0 0 0 0v0c0.063 0 0.172-0.010 0.184 0.017 0.057 0.127 0.103 0.276 0.132 0.431l0.002 0.013c0.010 0.083 0.015 0.178 0.015 0.276 0 0.045-0.001 0.089-0.003 0.133l0-0.006c0 0.066 0 0.131 0 0.197 0.045-0.055 0.088-0.114 0.138-0.165 0.023-0.019 0.052-0.033 0.083-0.039l0.001-0c0.051 0.079 0.096 0.169 0.142 0.254 0.116-0.188 0.238-0.371 0.342-0.565 0.040-0.089 0.068-0.191 0.079-0.299l0-0.004c0.020-0.116 0.026-0.238 0.039-0.353-0.079 0-0.194-0.021-0.219 0.016-0.053 0.079-0.057 0.193-0.079 0.292-0.008 0.035-0.013 0.099-0.026 0.101-0.097 0.011-0.197 0.011-0.296 0.014 0.079-0.317 0.162-0.634 0.248-0.944 0.005-0.019 0.049-0.026 0.075-0.039 0.016 0.034 0.051 0.073 0.045 0.103-0.047 0.238 0.19 0.425 0.451 0.346 0.065-0.019 0.131-0.033 0.197-0.049-0.062-0.008-0.123-0.013-0.184-0.024-0.015 0-0.028-0.024-0.041-0.036 0.016-0.011 0.029-0.022 0.042-0.034l-0 0c0.079-0.079 0.158-0.158 0.227-0.243 0.027-0.041 0.050-0.088 0.067-0.138l0.001-0.005c0.020 0.009 0.055 0.017 0.056 0.030 0.009 0.054 0.014 0.115 0.014 0.178 0 0 0 0 0 0v0c-0.004 0.042-0.007 0.090-0.007 0.139 0 0.070 0.005 0.138 0.015 0.205l-0.001-0.008c0.012 0.048 0.168 0.109 0.175 0.101 0.057-0.081 0.112-0.174 0.161-0.271l0.006-0.013c0.017-0.032 0.032-0.065 0.047-0.097 0.024 0.053 0.049 0.106 0.069 0.158s0.029 0.105 0.051 0.158c0 0.005 0.079-0.006 0.083-0.023 0.021-0.055 0.016-0.119 0.037-0.173 0.079-0.2 0.17-0.396 0.258-0.594 0 0 0.028 0.006 0.043 0.009-0.009 0.023-0.016 0.049-0.021 0.077l-0 0.003c-0.021 0.158-0.071 0.317-0.047 0.471 0.017 0.101 0.14 0.184 0.216 0.275 0.022-0.049 0.050-0.090 0.084-0.126l-0 0c0.272-0.199 0.547-0.396 0.826-0.581 0.013-0.009 0.090 0.063 0.123 0.107 0.013 0.017-0.013 0.063-0.023 0.096-0.017 0.056-0.067 0.136-0.047 0.163 0.053 0.050 0.114 0.092 0.182 0.122l0.004 0.002c0.010-0.063 0.020-0.126 0.033-0.189 0.007-0.022 0.017-0.042 0.028-0.060l-0.001 0.001c0.353 0.174 0.335-0.164 0.376-0.317 0.101-0.37 0.418-0.352 0.676-0.457 0.063-0.026 0.088-0.147 0.128-0.225 0.006-0.015 0.010-0.032 0.012-0.051l0-0.001c0.064 0.023 0.138 0.039 0.215 0.044l0.003 0c0.061-0.015 0.114-0.042 0.159-0.080l-0.001 0.001c0.021-0.013 0.033-0.039 0.052-0.055 0.090-0.074 0.209-0.129 0.265-0.223 0.135-0.226 0.238-0.471 0.358-0.706 0.048-0.095 0.106-0.185 0.158-0.277 0.049 0.033 0.091 0.070 0.128 0.112l0.001 0.001c0.021 0.043 0.037 0.093 0.045 0.145l0 0.003 0.354-0.124c-0.025-0.039-0.047-0.084-0.064-0.132l-0.001-0.004c-0.001-0.005-0.001-0.010-0.001-0.016 0-0.037 0.015-0.070 0.039-0.093v0c0.091-0.084 0.188-0.158 0.283-0.238 0.014 0.074 0.033 0.138 0.057 0.2l-0.003-0.008c0.021 0.065 0.060 0.119 0.112 0.158l0.001 0.001c0.147 0.071 0.304 0.119 0.457 0.176 0.018-0.1 0.079-0.218 0.044-0.296-0.059-0.142-0.176-0.258-0.265-0.388-0.009-0.016-0.014-0.034-0.014-0.054 0-0.009 0.001-0.018 0.003-0.026l-0 0.001c0.050-0.223 0.006-0.487 0.291-0.608 0.054-0.023 0.070-0.135 0.104-0.205 0.023 0.147 0.048 0.293 0.070 0.441 0.004 0.035 0.006 0.076 0.006 0.117 0 0.005-0 0.011-0 0.016v-0.001c0.033-0.024 0.090-0.042 0.097-0.071 0.128-0.555 0.099-1.15-0.288-1.542-0.238-0.238-0.727-0.242-1.109-0.301-0.262-0.040-0.54-0.005-0.807 0.021-0.154 0.015-0.3 0.094-0.453 0.113-0.026 0.003-0.057 0.004-0.088 0.004-0.097 0-0.19-0.015-0.277-0.043l0.006 0.002c-0.183-0.055-0.354-0.164-0.54-0.193-0.093-0.014-0.2 0.109-0.31 0.147-0.025 0.004-0.055 0.006-0.085 0.006-0.046 0-0.091-0.005-0.133-0.015l0.004 0.001c0.044-0.063 0.087-0.128 0.134-0.189 0.028-0.037 0.062-0.069 0.093-0.103-0.052 0.004-0.1 0.015-0.145 0.032l0.004-0.001c-0.073 0.040-0.135 0.081-0.194 0.126l0.003-0.003c-0.052 0.036-0.103 0.074-0.155 0.11 0.008-0.059 0.017-0.118 0.023-0.178 0.041-0.348 0.751-0.675 1.109-0.51 0.012 0.006 0.018 0.023 0.027 0.035-0.031 0.014-0.068 0.027-0.106 0.037l-0.006 0.001c-0.064 0.014-0.13 0.023-0.195 0.034 0.011 0.044 0.021 0.124 0.035 0.125 0.065-0.008 0.122-0.019 0.177-0.034l-0.010 0.002c0.283-0.025 0.567-0.038 0.849-0.067 0.674-0.070 1.347-0.158 2.022-0.216 0.417-0.035 0.841 0.006 1.255-0.044 0.428-0.052 0.845-0.216 1.273-0.253 0.64-0.056 1.291-0.005 1.928-0.079 0.401-0.047 0.856-0.097 1.079-0.555 0.061-0.081 0.156-0.134 0.263-0.139l0.001-0q1.085 0.035 2.168 0.104c0.292 0.014 0.567 0.057 0.831 0.127l-0.028-0.006c0.145 0.040 0.262 0.179 0.396 0.269 0.018 0.013 0.054 0 0.079 0 0-0 0-0.001 0-0.001 0-0.025-0.003-0.050-0.010-0.073l0 0.002c-0.017-0.044-0.040-0.086-0.062-0.129 0.071-0.010 0.158-0.051 0.212-0.026 1.918 0.834 3.064 2.333 3.637 4.3 0.138 0.475 0.189 0.971 0.267 1.459 0.155 0.964 0.387 1.925 0.425 2.893 0.029 0.754-0.133 1.529-0.306 2.273-0.25 1.076-0.496 2.167-0.905 3.188-0.681 1.718-1.357 3.133-2.112 4.497l0.1-0.198c-0.485 0.88-1.183 1.651-1.836 2.429-0.436 0.52-0.909 1.038-1.459 1.426-0.277 0.195-0.989 0.484-1.69 0.765-0.074 0.029-0.134 0.054-0.176 0.070-0.917 0.113-4.405 0.522-7.139 0.328-0.724-0.052-1.452-0.149-2.225-0.559-0.494-0.262-0.931-0.683-1.795-1.506-0.609-0.58-1.231-1.162-1.739-1.826-0.52-0.68-0.903-1.464-1.354-2.197-0.341-0.555-0.761-1.063-1.030-1.647-0.513-1.109-0.885-2.211-1.334-3.351-0.131-0.332-0.151-0.681-0.238-1.030zM23.996 18.28c0.020 0.013 0.137 0.052 0.141 0.101 0.023 0.294 0.024 0.589 0.023 0.884 0 0.038-0.048 0.079-0.075 0.114l0.194 0.021c-0.004-0.032-0.007-0.068-0.007-0.105s0.002-0.073 0.007-0.109l-0 0.004c0.033-0.124 0.099-0.238 0.129-0.366 0.151-0.634 0.364-1.257 0.418-1.896 0.046-0.549-0.075-1.116-0.158-1.67-0.076-0.514-0.187-0.97-0.334-1.41l0.017 0.058c-0.101-0.301-0.3-0.573-0.475-0.847-0.203-0.322-0.418-0.634-0.643-0.941-0.034-0.048-0.147-0.037-0.223-0.054 0.014 0.027 0.029 0.054 0.041 0.079 0.158 0.353 0.351 0.697 0.469 1.064 0.163 0.508 0.275 1.030 0.402 1.553 0.044 0.164 0.081 0.362 0.102 0.565l0.002 0.018c0.036 0.4 0.056 0.803 0.084 1.204 0.012 0.17 0.052 0.342 0.036 0.509-0.032 0.369-0.090 0.743-0.15 1.215z"></path>
<path d="M25.123 4.914c-0.117-0.109-0.238-0.215-0.352-0.325-0.052-0.050-0.098-0.107-0.147-0.158 0.066-0.032 0.143-0.055 0.224-0.065l0.004-0c0.431 0.025 0.863 0.046 1.29 0.105 0.128 0.018 0.238 0.158 0.359 0.238 0.024 0.015 0.054 0.031 0.084 0.045l0.005 0.002c0.010-0.030 0.032-0.063 0.026-0.090s-0.040-0.042-0.063-0.063l-0.102-0.093c0.048-0.013 0.095-0.023 0.143-0.037 0.071-0.022 0.141-0.047 0.212-0.070-0.039-0.029-0.083-0.055-0.129-0.077l-0.005-0.002c-0.019-0.007-0.056 0.041-0.079 0.035-0.209-0.059-0.416-0.132-0.628-0.182-0.032-0.008-0.085 0.105-0.131 0.108-0.205 0.013-0.412 0.010-0.618 0.007-0.317-0.006-0.634-0.011-0.951-0.025-0.501-0.021-1.002-0.049-1.506-0.074 0.063-0.113 0.097-0.265 0.191-0.334 0.46-0.333 0.933-0.645 1.407-0.958 0.063-0.027 0.137-0.045 0.214-0.049l0.002-0c-0.146 0.004-0.292 0.018-0.437 0.010s-0.396-0.021-0.403-0.059c-0.025-0.177 0.021-0.363 0.043-0.545 0.006-0.046 0.013-0.092 0.020-0.137-0.026 0.031-0.072 0.059-0.075 0.093-0.025 0.246-0.006 0.503-0.075 0.734-0.044 0.144-0.22 0.248-0.334 0.372-0.242 0.259-0.475 0.525-0.729 0.773-0.059 0.057-0.178 0.051-0.269 0.074-0.012-0.059-0.022-0.118-0.035-0.177-0.007-0.033-0.017-0.067-0.025-0.1-0.009 0.017-0.027 0.034-0.027 0.051 0 0.498-0.387 0.128-0.559 0.238-0.017 0.011-0.063-0.034-0.096-0.037-0.127-0.011-0.254-0.017-0.382-0.024 0.074-0.147 0.149-0.272 0.233-0.391l-0.006 0.009c0.242-0.298 0.502-0.582 0.749-0.872 0.113-0.135 0.218-0.277 0.321-0.42 0.017-0.023 0-0.067 0-0.102-0.023 0.011-0.043 0.024-0.062 0.038l0.001-0c-0.267 0.28-0.546 0.55-0.792 0.845-0.177 0.205-0.335 0.436-0.466 0.683l-0.010 0.020c-0.208 0.413-0.501 0.273-0.815 0.19-0.123-0.032-0.271 0.031-0.407 0.048-0.048 0.006-0.096 0.008-0.144 0.012 0.013-0.028 0.025-0.062 0.035-0.096l0.001-0.005c0-0.002 0-0.005 0-0.007 0-0.017-0.007-0.032-0.018-0.043v0c-0.015-0.012-0.035-0.019-0.056-0.019-0.002 0-0.004 0-0.006 0h0c-0.53 0.075-1.061 0.148-1.59 0.231-0.304 0.047-0.606 0.109-0.91 0.165-0.437 0.079-0.879 0.14-1.311 0.243-0.487 0.116-0.966 0.269-1.447 0.413-0.032 0.010-0.049 0.069-0.073 0.105 0.050 0.021 0.123 0.079 0.146 0.059 0.547-0.396 0.96 0.048 1.411 0.225 0.317 0.124 0.626 0.27 0.94 0.403 0.025 0.011 0.064-0.009 0.097-0.014-0.046-0.051-0.079-0.127-0.139-0.15-0.295-0.121-0.601-0.216-0.891-0.346-0.207-0.107-0.383-0.216-0.55-0.336l0.013 0.009c-0.007-0.005 0.011-0.079 0.029-0.089 0.276-0.087 0.555-0.238 0.829-0.23 0.294 0.012 0.58 0.185 0.872 0.28 0.686 0.226 1.376 0.444 2.060 0.674 0.103 0.048 0.191 0.106 0.27 0.176l-0.001-0.001c0.034 0.031 0.065 0.065 0.091 0.103l0.001 0.002c0.014-0.047 0.030-0.087 0.050-0.125l-0.002 0.004c0.024-0.036 0.057-0.086 0.093-0.092s0.074 0.039 0.111 0.061c-0.026 0.022-0.049 0.045-0.072 0.069l-0 0c-0.016 0.017-0.038 0.041-0.036 0.060s0.029 0.055 0.044 0.055c0.036-0.004 0.068-0.017 0.095-0.037l-0.001 0c0.023-0.018 0.044-0.038 0.062-0.060l0.001-0.001c0.007 0.013 0.025 0.032 0.021 0.040-0.017 0.033-0.036 0.086-0.060 0.090-0.117 0.020-0.238 0.014-0.356 0.037-0.351 0.071-0.698 0.169-1.052 0.22-0.168 0.024-0.349-0.022-0.521-0.058-0.069-0.014-0.127-0.085-0.19-0.13 0.119-0.009 0.238-0.017 0.356-0.029 0.037-0.005 0.069-0.011 0.1-0.019l-0.006 0.001c-0.005-0.010-0.008-0.029-0.014-0.030-0.074-0.016-0.166-0.030-0.259-0.039l-0.010-0.001c-0.119-0.007-0.238 0-0.358 0-0.039-0.007-0.074-0.019-0.106-0.034l0.003 0.001c-0.016 0.041-0.028 0.089-0.034 0.139l-0 0.003c0 0.014 0.055 0.030 0.086 0.043 0.015 0.006 0.034 0.011 0.053 0.015l0.002 0c-0.011 0.010-0.021 0.028-0.033 0.029-0.28 0.042-0.565 0.068-0.841 0.13-0.109 0.025-0.208 0.197-0.296 0.185-0.427-0.059-0.849-0.158-1.268-0.246-0.022-0.005-0.036-0.046-0.055-0.070l0.099 0.009 0.193 0.020-0.019-0.143c-0.047 0.015-0.101 0.025-0.157 0.028l-0.001 0c-0.229-0.019-0.501 0.024-0.678-0.085-0.321-0.199-0.807-0.367-0.533-0.933 0.013-0.027-0.013-0.074-0.026-0.11 0-0.007-0.044-0.012-0.049 0-0.045 0.055-0.089 0.117-0.13 0.182l-0.005 0.008c-0.022 0.040-0.046 0.089-0.066 0.14l-0.003 0.010-0.293-0.333c0.029-0.015 0.079-0.025 0.086-0.046 0.022-0.091 0.022-0.187 0.045-0.278 0.047-0.235 0.108-0.44 0.185-0.637l-0.009 0.025c0.206-0.445 0.392-0.911 0.675-1.306 0.187-0.262 0.53-0.411 0.798-0.617 0.594-0.456 1.136-1.024 1.797-1.341 0.372-0.18 0.857-0.2 1.288-0.387s0.964-0.189 1.449-0.274c0.124-0.021 0.252-0.090 0.369-0.074 0.234 0.032 0.462 0.111 0.694 0.158 0.087 0.017 0.192 0.031 0.299 0.038l0.007 0c0.296 0.028 0.598 0.024 0.887 0.088 0.431 0.096 0.857 0.227 1.277 0.365s0.853 0.317 1.281 0.466c0.325 0.113 0.655 0.211 0.982 0.317 0.021 0.007 0.040 0.034 0.055 0.055 0.055 0.079 0.092 0.182 0.166 0.232 0.228 0.158 0.471 0.291 0.707 0.435 0.006 0 0.007 0.029 0 0.033-0.468 0.308 0.059 0.231 0.131 0.305 0.127 0.116 0.265 0.226 0.411 0.325l0.013 0.008c0.006 0.008 0.010 0.018 0.010 0.029 0 0.005-0.001 0.010-0.002 0.014l0-0c-0.101 0.289-0.023 0.38 0.317 0.535 0.151 0.068 0.254 0.238 0.378 0.365 0.033 0.036 0.067 0.069 0.103 0.101l0.002 0.001c0.214 0.177 0.429 0.353 0.643 0.529-0.15 0.158-0.282 0.342-0.455 0.475-0.238 0.181-0.508 0.317-0.758 0.483-0.105 0.070-0.193 0.166-0.295 0.238-0.021 0.016-0.075-0.011-0.113-0.019 0.040-0.021 0.079-0.040 0.119-0.063 0.066-0.039 0.131-0.079 0.196-0.119-0.061-0.040-0.124-0.116-0.182-0.113-0.094 0.007-0.182 0.085-0.277 0.098-0.018 0.001-0.040 0.001-0.061 0.001-0.092 0-0.183-0.007-0.271-0.021l0.010 0.001c-0.037 0.002-0.072 0.008-0.105 0.017l0.003-0.001c0.027 0.013 0.050 0.028 0.070 0.046l-0-0c0.035 0.037 0.066 0.079 0.098 0.119-0.011 0.008-0.023 0.025-0.032 0.023-0.061-0.005-0.118-0.019-0.17-0.042l0.004 0.001c-0.109-0.058-0.209-0.128-0.317-0.194 0 0.039-0.018 0.093 0 0.112 0.043 0.031 0.092 0.061 0.143 0.088l0.007 0.003c0.023 0.023 0.043 0.049 0.059 0.078l0.001 0.002c-0.022 0.010-0.055 0.033-0.067 0.026-0.409-0.26 0 0.2-0.15 0.172-0.004 0-0.012 0.062-0.031 0.079s-0.048 0-0.074 0c0.012-0.020 0.032-0.040 0.033-0.061 0 0 0 0 0 0 0-0.024-0.011-0.046-0.028-0.060l-0-0c-0.074-0.049-0.151-0.092-0.226-0.138 0.013 0.035 0.027 0.069 0.036 0.105 0 0.002 0 0.004 0 0.007 0 0.013-0.003 0.025-0.009 0.035l0-0c-0.136-0.018-0.273-0.039-0.409-0.059-0.020-0.003-0.043-0.005-0.068-0.006l-0.001-0c-0 0.002-0 0.005-0 0.008 0 0.023 0.003 0.044 0.009 0.065l-0-0.002c0.030 0.065 0.066 0.128 0.099 0.193-0.028 0.008-0.075 0.029-0.079 0.021-0.040-0.059-0.071-0.124-0.108-0.185-0.021-0.035-0.046-0.066-0.075-0.092l-0-0c-0.101 0.059-0.197 0.126-0.292 0.193 0.005 0.011 0.010 0.020 0.017 0.029l-0-0c0.071-0.023 0.143-0.048 0.213-0.074l0.041-0.016c0.008 0.036 0.036 0.093 0.022 0.107-0.042 0.040-0.105 0.056-0.149 0.094-0.024 0.021-0.024 0.069-0.034 0.104-0.274-0.093-0.548-0.189-0.823-0.282-0.233-0.079-0.468-0.151-0.699-0.238 0-0.048 0.010-0.093 0.028-0.135l-0.001 0.002c0.022-0.036 0.047-0.067 0.075-0.094l0-0c-0.050 0.022-0.107 0.039-0.168 0.048l-0.003 0c-0.111 0-0.222-0.015-0.333-0.024 0.004-0.024 0.006-0.068 0.013-0.068 0.021-0.002 0.045-0.002 0.070-0.002s0.049 0.001 0.073 0.003l-0.003-0-0.346-0.286c-0.001 0.015-0.002 0.033-0.002 0.050s0.001 0.035 0.002 0.053l-0-0.002c0.005 0.065 0.013 0.13 0.021 0.194-0.049-0.049-0.1-0.095-0.155-0.137l-0.004-0.003c-0.050-0.034-0.113-0.047-0.166-0.079-0.079-0.043-0.158-0.092-0.238-0.138l-0.537-0.317c0.038-0.065 0.081-0.121 0.131-0.171l-0 0c0.439-0.358 0.808-0.044 1.18 0.143 0.402 0.202 0.792 0.429 1.185 0.648 0.181 0.101 0.357 0.209 0.535 0.317 0.048 0.029 0.095 0.063 0.144 0.090 0.004 0 0.032-0.027 0.031-0.029-0.033-0.061-0.073-0.114-0.122-0.158l-0-0c-0.073-0.047-0.16-0.095-0.25-0.138l-0.015-0.007c-0.021-0.014-0.039-0.029-0.056-0.045l0 0c0.024-0.014 0.048-0.041 0.071-0.040 0.15 0 0.299 0.011 0.448 0.017-0.167-0.032-0.312-0.072-0.452-0.123l0.020 0.006c-0.57-0.253-1.134-0.517-1.7-0.78-0.030-0.021-0.056-0.046-0.079-0.073l-0.001-0.001c0.036 0 0.074-0.009 0.11-0.011 0.245-0.012 0.495-0.062 0.733-0.026 0.269 0.040 0.526 0.158 0.788 0.238 0.017 0.006 0.037 0.010 0.057 0.010 0.001 0 0.002 0 0.004-0h-0c0.062 0 0.136-0.034 0.182-0.010 0.19 0.1 0.372 0.216 0.555 0.326 0.013 0.044 0.012 0.116 0.038 0.128 0.153 0.081 0.332 0.154 0.519 0.211l0.022 0.006c0.132 0.032 0.28 0 0.422 0 0 0 0.008-0.036 0-0.041-0.041-0.039-0.089-0.072-0.142-0.095l-0.003-0.001c-0.172-0.051-0.347-0.095-0.522-0.136-0.105-0.004-0.219-0.021-0.332-0.043zM20.189 1.17c-0.029 0.042-0.055 0.12-0.105 0.143-0.206 0.097-0.42 0.179-0.634 0.265-0.009 0.004-0.020 0.007-0.032 0.007s-0.022-0.002-0.032-0.007l0 0c-0.013-0.008-0.016-0.038-0.017-0.059-0.006-0.158-0.042-0.33-0.005-0.48s0.147-0.29 0.228-0.432c0.011-0.020 0.040-0.029 0.059-0.043-0.009-0.010-0.026-0.031-0.028-0.029-0.125 0.090-0.322 0.158-0.357 0.28-0.079 0.251-0.061 0.529-0.101 0.792-0.010 0.067-0.086 0.126-0.133 0.186 0 0-0.039-0.017-0.039-0.018 0.022-0.040 0.044-0.087 0.063-0.135l0.002-0.007c0.007-0.029-0.012-0.064-0.020-0.097-0.030 0.011-0.056 0.024-0.080 0.040l0.001-0.001c-0.035 0.036-0.068 0.073-0.099 0.113l-0.002 0.003c-0.020-0.042-0.039-0.085-0.060-0.126-0.054-0.101-0.109-0.203-0.163-0.304 0.020 0.118 0.033 0.254 0.036 0.394l0 0.002c-0.004 0.189-0.030 0.371-0.076 0.544l0.004-0.016c-0.026 0.089-0.127 0.158-0.202 0.227-0.012 0.011-0.070-0.025-0.105-0.043-0.028-0.018-0.052-0.035-0.075-0.053l0.002 0.001c-0.002 0.037-0.005 0.071-0.011 0.105l0.001-0.005c-0.019 0.092-0.018 0.2-0.067 0.272-0.088 0.131-0.213 0.238-0.313 0.359-0.201 0.25-0.404 0.499-0.589 0.76-0.061 0.105-0.111 0.226-0.146 0.354l-0.002 0.011s0.063 0.044 0.087 0.036c0.075-0.020 0.177-0.034 0.21-0.086 0.2-0.325 0.357-0.678 0.577-0.985 0.284-0.396 0.609-0.761 0.929-1.128 0.041-0.048 0.158-0.052 0.238-0.041 0.063 0.009 0.119 0.070 0.177 0.107 0-0.068-0.030-0.166 0.004-0.199 0.097-0.087 0.206-0.163 0.323-0.226l0.009-0.004c0.025-0.014 0.079 0.013 0.117 0.032 0.027 0.021 0.050 0.045 0.070 0.072l0.001 0.001c0.010-0.031 0.021-0.071 0.030-0.112l0.001-0.008c0.007-0.045 0.007-0.092 0.010-0.139 0.090 0.016 0.18 0.029 0.269 0.048 0.023 0.010 0.043 0.022 0.060 0.038l-0-0c-0.002-0.010-0.003-0.020-0.003-0.032s0.001-0.022 0.003-0.033l-0 0.001c0.024-0.056 0.040-0.143 0.079-0.158 0.122-0.048 0.258-0.059 0.384-0.1 0.044-0.014 0.075-0.072 0.111-0.11-0.030-0.006-0.064-0.010-0.098-0.010-0.007 0-0.013 0-0.020 0l0.001-0c-0.116 0.019-0.231 0.045-0.346 0.068-0.017-0.185-0.032-0.372-0.052-0.555-0.007-0.030-0.018-0.056-0.032-0.081l0.001 0.001c-0.013 0.020-0.038 0.039-0.039 0.059-0.004 0.167-0.002 0.338-0.002 0.54zM20.398 2.587l0.020-0.007c-0.008-0.021-0.016-0.039-0.026-0.057l0.001 0.002c-0.001-0-0.001-0-0.002-0-0.012 0-0.022 0.004-0.030 0.011l0-0c-0.2 0.258-0.396 0.517-0.601 0.773-0.030 0.029-0.067 0.051-0.109 0.063l-0.002 0c-0.020-0.015-0.035-0.036-0.041-0.061l-0-0.001c-0.005-0.368-0.005-0.737-0.009-1.109-0.004-0.043-0.011-0.082-0.022-0.12l0.001 0.005c-0.028 0.036-0.075 0.071-0.079 0.11-0.019 0.177-0.033 0.357-0.036 0.535-0.005 0.422 0.181 0.872-0.203 1.234-0.031 0.029-0.059 0.060-0.090 0.091l0.075 0.071c0.053-0.048 0.102-0.1 0.145-0.156l0.002-0.003c0.123-0.183 0.205-0.41 0.364-0.555 0.583-0.509 1.193-0.995 1.796-1.491 0.022-0.021 0.041-0.044 0.058-0.069l0.001-0.002c-0.035 0.007-0.079 0-0.103 0.021-0.34 0.25-0.677 0.502-1.016 0.753-0.016 0.011-0.036 0.018-0.058 0.018-0.005 0-0.009-0-0.013-0.001l0 0c-0.013-0.003-0.018-0.038-0.025-0.058zM17.265 1.677c0.166-0.126 0.238-0.181 0.308-0.238 0.117-0.086 0.238-0.169 0.353-0.253-0.019-0.010-0.045-0.033-0.055-0.028-0.177 0.1-0.371 0.181-0.522 0.311-0.189 0.176-0.362 0.361-0.522 0.558l-0.008 0.010c-0.303 0.349-0.599 0.703-0.895 1.058-0.018 0.021-0.009 0.064-0.013 0.097 0.026-0.025 0.054-0.048 0.079-0.079 0.133-0.158 0.262-0.317 0.396-0.475q0.245-0.276 0.501-0.54c0.134-0.139 0.274-0.271 0.414-0.404 0.002 0.007 0.024 0.025-0.036-0.016zM15.144 4.433l0.070 0.105c0.018-0.017 0.044-0.029 0.053-0.049q0.211-0.455 0.416-0.911c0.009-0.027 0.013-0.059 0.013-0.091v-0c-0.017 0-0.045 0-0.050 0.007-0.174 0.315-0.343 0.636-0.502 0.939zM22.521 2.249c0.116-0.098 0.221-0.196 0.336-0.28s0.256-0.163 0.385-0.244c-0.177 0.088-0.354 0.176-0.532 0.262-0.033 0.016-0.071 0.029-0.111 0.039l-0.004 0.001c-0.008 0-0.029-0.017-0.032-0.029-0.004-0.022-0.006-0.047-0.006-0.073 0-0.002 0-0.004 0-0.006v0c-0.020 0.1-0.040 0.2-0.057 0.301-0.002 0.012 0.017 0.026 0.021 0.030zM18.216 1.493c-0.006 0.093 0.004 0.066-0.005 0.048-0.024-0.044-0.048-0.081-0.073-0.116l0.002 0.003c-0.004 0.026-0.006 0.052-0.012 0.079-0.018 0.057-0.035 0.131-0.049 0.206l-0.002 0.014c-0.016 0.103-0.024 0.221-0.024 0.341 0 0.019 0 0.039 0.001 0.058l-0-0.003c0 0.061 0.059 0.119 0.092 0.178 0.017-0.061 0.032-0.135 0.041-0.21l0.001-0.007c0-0.019-0.084-0.046-0.079-0.061 0.021-0.14 0.054-0.278 0.109-0.529zM27.469 4.52l0.196-0.060c-0.192-0.013-0.384-0.029-0.577-0.040-0.021 0-0.044 0.022-0.066 0.033zM23.705 5.367l-0.396-0.349c-0.013 0.014-0.037 0.042-0.036 0.043 0.121 0.114 0.243 0.228 0.368 0.338 0.008 0.005 0.040-0.019 0.065-0.032zM23.032 0.989c-0.032-0.040-0.046-0.057-0.047-0.056-0.097 0.071-0.197 0.142-0.292 0.217-0.049 0.040-0.093 0.082-0.134 0.127l-0.001 0.001c-0.009 0.010 0 0.039 0 0.059zM17.116 6.044l0.298-0.098c-0.097-0.041-0.194-0.084-0.293-0.12-0.009 0-0.051 0.038-0.048 0.055 0.012 0.064 0.027 0.119 0.045 0.173l-0.003-0.009zM18.384 1.025l-0.026-0.032-0.079 0.061c0.069 0.056 0.138 0.113 0.206 0.17l0.102-0.372zM24.342 2.656l0.066 0.088c0.065-0.124 0.13-0.248 0.193-0.372 0-0.006-0.014-0.023-0.022-0.035z"></path>
<path d="M6.931 8.536c0.638-0.065 1.114-0.112 1.59-0.164 0.038-0.004 0.071-0.048 0.107-0.075-0.056-0.033-0.113-0.063-0.168-0.098-0.036-0.024-0.069-0.053-0.103-0.079 0.042-0.007 0.088-0.031 0.125-0.021 0.273 0.079 0.543 0.158 0.819 0.223 0.009 0 0.045-0.213 0.105-0.304s0.165-0.22 0.251-0.221c0.363 0 0.725 0.036 1.088 0.059 0.017 0 0.036-0.016 0.055-0.024-0.025-0.023-0.046-0.049-0.065-0.078l-0.001-0.002c-0.138-0.3-0.284-0.599-0.396-0.91-0.013-0.036 0.139-0.174 0.238-0.201 0.213-0.065 0.47-0.12 0.734-0.156l0.027-0.003c0.081-0.006 0.175-0.009 0.269-0.009s0.189 0.003 0.282 0.010l-0.013-0.001c0 0.167-0.036 0.34-0.004 0.5 0.049 0.246 0.090 0.525 0.238 0.701 0.067 0.079 0.388-0.091 0.594-0.092 0.849-0.005 1.697 0 2.546 0.026 0.386 0.022 0.743 0.064 1.092 0.126l-0.054-0.008c0.124 0.030 0.233 0.069 0.335 0.118l-0.010-0.004c-0.070 0.087-0.148 0.163-0.235 0.23l-0.003 0.002c-0.27 0.158-0.55 0.31-0.83 0.454-0.040 0.021-0.103-0.007-0.158-0.013 0.025-0.040 0.046-0.083 0.073-0.122s0.071-0.090 0.107-0.134l-0.158-0.006c-0.281-0.009-0.564-0.035-0.845-0.024-0.262 0.011-0.523 0.059-0.784 0.094-0.107 0.014-0.238 0-0.317 0.059-0.116 0.090-0.19 0.232-0.287 0.348-0.042 0.058-0.095 0.106-0.156 0.141l-0.002 0.001c-0.045 0.019-0.112-0.012-0.169-0.021 0.031-0.052 0.086-0.102 0.089-0.158 0.007-0.17-0.006-0.34-0.010-0.51-0.066 0.023-0.184 0.038-0.189 0.070-0.009 0.063-0.015 0.135-0.015 0.208s0.005 0.146 0.016 0.216l-0.001-0.008c0.059 0.441-0.326 0.303-0.475 0.306-0.889 0.017-1.781 0.008-2.668-0.052-0.25-0.017-0.483-0.238-0.731-0.354-0.055-0.025-0.143 0.019-0.216 0.031 0.049 0.032 0.101 0.060 0.147 0.096 0.038 0.032 0.073 0.066 0.105 0.101l0.001 0.001c-0.048-0.008-0.095-0.019-0.143-0.024-0.555-0.058-1.115-0.113-1.672-0.173-0.079-0.013-0.147-0.029-0.213-0.050l0.011 0.003c0.063-0.035 0.125-0.074 0.049-0.026z"></path>
<path d="M21.164 5.658c-0.382 0.019-0.766 0.069-1.146 0.048-0.312-0.018-0.619-0.128-0.929-0.186-0.265-0.050-0.534-0.075-0.798-0.129-0.053-0.010-0.079-0.12-0.137-0.147-0.112-0.051-0.238-0.067-0.354-0.113-0.104-0.048-0.191-0.096-0.274-0.149l0.009 0.005c0.021-0.016 0.039-0.033 0.056-0.053l0-0c0.007-0.010 0.005-0.040 0-0.044-0.018-0.008-0.043 0-0.061-0.010-0.171-0.075-0.342-0.152-0.513-0.228-0.016-0.007-0.034-0.021-0.048-0.017-0.051 0.011-0.101 0.029-0.151 0.044 0-0.021-0.004-0.060 0-0.062 0.065-0.022 0.141-0.039 0.22-0.046l0.004-0c0.145 0 0.294 0.031 0.434 0.006 0.274-0.048 0.544-0.122 0.815-0.191 0.773-0.198 1.264 0.294 1.802 0.708 0.231 0.178 0.525 0.274 0.792 0.403 0.12 0.058 0.247 0.102 0.37 0.154 0.006 0 0.006 0.016 0.009 0.024l-0.101 0.028z"></path>
<path d="M22.769 6.16c0.006-0.086 0.016-0.172 0.016-0.257 0-0.011-0.051-0.032-0.079-0.031-0.166 0-0.333 0.018-0.498 0.012s-0.329-0.033-0.494-0.052c-0.050-0.006-0.1-0.016-0.15-0.024 0.033-0.006 0.063-0.015 0.090-0.028l-0.002 0.001c0.020-0.019 0.036-0.041 0.048-0.066l0.001-0.001c-0.024-0-0.047-0.004-0.068-0.010l0.002 0q-0.411-0.181-0.821-0.366c-0.091-0.041-0.199-0.065-0.267-0.131-0.114-0.121-0.223-0.25-0.325-0.384l-0.009-0.012c-0.017-0.016-0.037-0.030-0.059-0.040l-0.002-0.001c-0.006 0.017-0.018 0.036-0.015 0.051 0.013 0.058 0.031 0.115 0.048 0.173-0.045-0.026-0.084-0.054-0.118-0.087l0 0c-0.164-0.194-0.324-0.391-0.485-0.589 0.050-0.013 0.108-0.021 0.167-0.021 0.021 0 0.042 0.001 0.063 0.003l-0.003-0c0.54 0.134 1.109 0.212 1.609 0.435 0.514 0.228 0.958 0.613 1.448 0.903 0.169 0.1 0.384 0.121 0.578 0.178 0.212 0.061 0.425 0.119 0.634 0.185 0.029 0.009 0.049 0.051 0.073 0.079-0.103 0.012-0.206 0.030-0.309 0.036-0.357 0.018-0.713 0.032-1.074 0.047z"></path>
<path d="M22.767 6.157c-0.126 0.073-0.25 0.197-0.379 0.202-0.102 0.005-0.21-0.137-0.317-0.215 0 0 0-0.014 0-0.018-0.053-0.069-0.107-0.137-0.158-0.205 0.123 0.032 0.246 0.062 0.368 0.096 0.164 0.046 0.327 0.095 0.491 0.143z"></path>
<path d="M25.296 6.124l0.391-0.029 0.227-0.012c-0.079 0.021-0.166 0.044-0.25 0.061s-0.189 0.036-0.284 0.050c-0.119 0.018-0.238 0.032-0.357 0.046-0-0.004-0.001-0.008-0.001-0.012s0-0.009 0.001-0.013l-0 0.001z"></path>
</symbol>
<symbol id="bird" viewBox="0 0 39 32">
<title>Eastern Bluebird</title>
<path d="M24.233 15.632l-0.5-0.578 0.382-0.186c-0.351-0.283-0.632-0.533-0.936-0.748s-0.625-0.389-0.919-0.633h-0.152c-0.407-0.241-0.784-0.488-1.183-0.695s-0.819-0.371-1.231-0.555l-0.049 0.113 1.459 0.623-0.016 0.034-1.79-0.676-0.056-0.2 0.2-0.233c0.252 0.061 0.567 0.081 0.828 0.21 0.834 0.414 1.651 0.865 2.47 1.311 0.247 0.134 0.479 0.3 0.739 0.42l-0.4-0.336c0.256-0.183 0.264-0.292-0.017-0.422-0.605-0.282-1.228-0.527-1.84-0.8-0.2-0.090-0.388-0.215-0.585-0.317-0.090-0.048-0.197-0.096-0.307-0.135l-0.017-0.005c-0.251-0.084-0.506-0.157-0.757-0.242-0.268-0.091-0.532-0.191-0.8-0.29-0.031-0.015-0.058-0.033-0.082-0.054l0 0 0.006-0.081c0.21 0 0.434-0.047 0.628 0.009 0.586 0.169 1.162 0.375 1.74 0.571 0.226 0.077 0.442 0.2 0.673 0.24 0.162 0.028 0.341-0.050 0.525-0.083-0.081-0.315-0.331-0.352-0.525-0.411-0.65-0.2-1.309-0.359-1.987-0.541-0.092-0.2-0.314-0.2-0.52-0.237-0.268-0.049-0.536-0.1-0.8-0.164-0.059-0.025-0.111-0.057-0.156-0.096l0.001 0.001c0.029-0.031 0.047-0.067 0.064-0.066 0.34 0.008 0.681 0.007 1.019 0.038 0.186 0.017 0.366 0.1 0.552 0.132 0.346 0.055 0.694 0.088 1.041 0.134 0.11 0.014 0.218 0.040 0.336 0.063-0.039-0.356-0.323-0.421-0.559-0.469-0.503-0.117-1.117-0.215-1.743-0.274l-0.057-0.004c-0.7-0.052-1.415-0.041-2.123-0.032-0.292 0-0.583 0.094-0.876 0.1-0.208 0.005-0.419-0.064-0.628-0.1l0.009-0.106c0.052-0.009 0.117-0.044 0.154-0.025 0.334 0.172 0.677 0.044 1.016 0.045 0.791 0 1.583 0.019 2.375 0.029h0.26l0.007-0.066-1.4-0.167 0.007-0.108h2.5c-0.225-0.3-0.512-0.336-0.761-0.358-0.531-0.048-1.067-0.036-1.6-0.049-0.003 0-0.007 0-0.011 0-0.036 0-0.068-0.016-0.089-0.041l-0-0 0.231-0.044v-0.054l-0.738-0.050v-0.1l1.9-0.179 0.028-0.090c-0.11-0.118-0.2-0.271-0.337-0.343s-0.318-0.067-0.515-0.1c-0.129-0.214-0.595-0.212-0.519-0.68-0.173-0.374-0.539-0.534-0.962-0.332-0.882 0.421-1.754 0.864-2.616 1.322-0.248 0.132-0.454 0.344-0.673 0.527-0.118 0.1-0.118 0.187 0.049 0.24 0.243 0.078 0.485 0.159 0.724 0.248 0.035 0.012 0.052 0.074 0.075 0.109-0.548 0.282-1.191 0.166-1.645 0.5l-1.526 0.15c0.011-0.019 0.045-0.082 0.115-0.211-0.288 0.149-0.513 0.245-0.6-0.116l-0.136 0.078c-0.346-0.134-0.355-0.133-0.378 0.052l0.321 0.435c-0.061 0.045-0.124 0.129-0.174 0.121-0.097-0.008-0.181-0.057-0.236-0.129l-0.001-0.001c-0.071-0.171-0.236-0.289-0.429-0.289-0.122 0-0.234 0.047-0.316 0.125l0-0c-0.018 0.031-0.029 0.069-0.029 0.109 0 0.033 0.008 0.065 0.021 0.093l-0.001-0.001c0.139 0.223 0.287 0.416 0.452 0.593l-0.002-0.002-0.214 0.212-0.11-0.094-0.848 1.346-0.045-0.019 0.314-0.671c-0.582-0.328-1.107-0.743-1.391-1.434-0.22-0.109-0.467-0.23-0.712-0.354-0.15-0.076-0.3-0.149-0.442-0.239-0.2-0.127-0.215-0.216-0.080-0.48-0.172-0.136-0.352-0.28-0.533-0.422s-0.392-0.293-0.576-0.453-0.372-0.343-0.549-0.525c-0.32-0.329-0.641-0.657-0.947-1-0.228-0.255-0.439-0.528-0.65-0.8-0.417-0.536-0.829-1.076-1.241-1.617-0.266-0.321-0.533-0.68-0.782-1.052l-0.031-0.049c-0.292-0.481-0.534-0.993-0.788-1.495-0.053-0.117-0.112-0.269-0.162-0.424l-0.010-0.034c-0.1-0.263 0.018-0.626 0.422-0.6 0.543 0.038 0.98 0.292 1.4 0.6 0.045 0.033 0.091 0.064 0.2 0.138 0.006-0.037 0.009-0.080 0.009-0.123s-0.003-0.086-0.010-0.128l0.001 0.005c-0.058-0.145-0.141-0.28-0.2-0.425-0.021-0.046-0.033-0.101-0.033-0.158 0-0.159 0.095-0.295 0.231-0.356l0.002-0.001c0.62-0.257 1.251-0.3 1.817 0.094 0.367 0.254 0.665 0.606 1 0.914 0.047 0.053 0.112 0.089 0.185 0.1l0.002 0c-0.094-0.192-0.18-0.389-0.285-0.575-0.278-0.494 0.047-0.969 0.591-0.98 1.053-0.021 1.681 0.617 2.275 1.342 0.033 0.041 0.061 0.086 0.11 0.155 0.041-0.052 0.082-0.082 0.092-0.12 0.16-0.606 0.438-0.771 1.050-0.583 0.431 0.134 0.867 0.3 1.106 0.711 0.155 0.269 0.243 0.577 0.359 0.869 0.022 0.056 0.036 0.115 0.062 0.2 0.058-0.048 0.095-0.077 0.131-0.108 0.105-0.104 0.249-0.168 0.408-0.168 0.066 0 0.13 0.011 0.189 0.031l-0.004-0.001c0.703 0.216 1.264 0.711 1.563 1.353l0.007 0.016c0.025 0.067 0.047 0.148 0.063 0.231l0.001 0.009c0.541-0.154 0.95 0.126 1.332 0.447s0.785 0.581 0.983 1.079c0.109-0.046 0.235-0.073 0.368-0.073 0.206 0 0.397 0.065 0.554 0.175l-0.003-0.002c0.359 0.26 0.685 0.565 1.027 0.85 0.060 0.050 0.118 0.124 0.188 0.139 0.614 0.135 0.964 0.6 1.35 1.034 0.155 0.173 0.379 0.282 0.549 0.443 0.249 0.236 0.469 0.5 0.719 0.736 0.209 0.2 0.457 0.354 0.665 0.552 0.3 0.283 0.555 0.607 0.86 0.879 0.369 0.328 0.724 0.654 0.9 1.133 0.061 0.109 0.141 0.2 0.236 0.271l0.002 0.002c0.334 0.318 0.653 0.638 0.694 1.141 0.030 0.116 0.099 0.212 0.191 0.278l0.002 0.001c0.357 0.289 0.517 0.693 0.662 1.1 0.035 0.1 0 0.219-0.011 0.377 0.357 0.436 0.587 0.962 0.468 1.647 0.033 0.074 0.088 0.2 0.161 0.367l-0.315-0.157 0.039-0.041c-0.295-0.269-0.581-0.55-0.889-0.8s-0.636-0.478-0.956-0.715l0.048-0.073-2.153-1.421c-0.006-0.215 0.079-0.26 0.3-0.175 0.845 0.33 1.551 0.876 2.243 1.441 0.396 0.325 0.783 0.67 1.238 1.056zM10.659 4.854l0.059 0.006-0.006 0.064c-0.068 0.884-0.141 1.769-0.2 2.655 0 0.065 0.107 0.174 0.184 0.2s0.154-0.062 0.238-0.1l0.506 0.451q0.675-1.323 1.344-2.638l0.062 0.029c-0.437 0.874-0.934 1.723-1.177 2.738l0.4-0.053 0.163 0.248c0.1 0.153 0.221 0.153 0.331 0.020 0.764-0.916 1.7-1.637 2.619-2.388 0.082-0.077 0.159-0.158 0.23-0.244l0.004-0.004c-0.235-0.119-0.579 0.083-0.619-0.319l-0.245 0.191c-0.231-0.57-0.675-0.887-1.184-1.144l-0.191 0.176-0.050-0.323c-0.153 0-0.332 0.051-0.423-0.016s-0.053-0.252-0.078-0.418l-0.275 0.36c-0.043-0.034-0.081-0.072-0.115-0.113l-0.001-0.001c-0.228-0.33-0.443-0.677-0.841-0.828-0.173-0.065-0.356-0.392-0.533 0l-0.184-0.14-0.278 0.13-0.152-0.217-0.2 0.138c-0.147-0.251-0.282-0.493-0.431-0.726-0.068-0.13-0.159-0.239-0.268-0.326l-0.002-0.002c-0.206-0.128-0.445-0.25-0.694-0.353l-0.033-0.012c-0.050-0.020-0.167 0.045-0.209 0.1-0.020 0.043-0.032 0.094-0.032 0.147 0 0.028 0.003 0.055 0.009 0.081l-0-0.002c0.078 0.687 0.147 1.376 0.245 2.061s0.216 1.377 0.349 2.062c0.076 0.393 0.2 0.776 0.314 1.208l0.389-0.139 0.587 0.271c0.132-0.953 0.261-1.891 0.389-2.829zM2.957 1.578c-0.149 0.6 3.387 6.177 4.057 6.455 0.255-0.293-0.090-0.472-0.14-0.727 0.259 0.184 0.511 0.361 0.879 0.259l-1.343-3.231-0.154 0.307c-0.241-0.043-0.341-0.2-0.415-0.39-0.161-0.407-0.18-0.888-0.6-1.163-0.009-0.010-0.016-0.021-0.021-0.034l-0-0.001c-0.249-0.465-0.691-0.742-1.081-1.059-0.215-0.174-0.521-0.24-0.791-0.339-0.112-0.033-0.246-0.060-0.383-0.076l-0.011-0.001zM5.638 1.293c-0.145 0.466 2.091 6.047 2.494 6.334 0.356-0.041 0.2-0.272 0.12-0.529 0.25 0.261 0.466 0.425 0.79 0.412-0.221-1.393-0.439-2.762-0.657-4.139-0.043 0.007-0.079 0.015-0.114 0.026l0.007-0.002c-0.294 0.12-0.456 0.058-0.556-0.242-0.059-0.179-0.066-0.374-0.124-0.553-0.043-0.118-0.109-0.218-0.193-0.3l-0-0c-0.068-0.069-0.2-0.080-0.255-0.154-0.229-0.334-0.568-0.515-0.917-0.676-0.164-0.064-0.364-0.125-0.57-0.171l-0.029-0.006zM3.566 4.173l-0.068 0.043c-0.152-0.146-0.3-0.3-0.457-0.434-0.226-0.2-0.464-0.379-0.692-0.573-0.094-0.103-0.192-0.197-0.295-0.285l-0.005-0.004c-0.195-0.13-0.426-0.266-0.665-0.39l-0.043-0.020c-0.053-0.015-0.114-0.024-0.178-0.024-0.025 0-0.050 0.001-0.075 0.004l0.003-0c-0.056 1.3 3.828 5.885 5.301 6.301 0.010-0.035 0.020-0.070 0.017-0.058l-0.3-0.435 0.691-0.051-1.451-1.8-0.248 0.173c-0.533-0.829-1.244-1.5-1.535-2.446zM16.399 6.738c-0.040-0.119-0.073-0.231-0.115-0.34-0.161-0.422-0.685-0.611-1.017-0.324-0.722 0.625-1.422 1.276-2.116 1.932-0.2 0.19-0.349 0.433-0.56 0.7h0.313c0.042 0.040 0.077 0.087 0.105 0.138l0.001 0.003c0.074 0.212 0.191 0.234 0.358 0.1 0.811-0.642 1.737-1.079 2.671-1.5 0.237-0.107 0.471-0.222 0.721-0.341-0.072-0.136-0.131-0.248-0.193-0.368zM8.213 8.029l-0.069-0.009 0.048 0.405c-0.217 0.031-0.237 0.016-0.368-0.257-0.075-0.158-0.292-0.222-0.355-0.1-0.1 0.2-0.223 0.406-0.027 0.633 0.132 0.152 0.223 0.342 0.359 0.489 0.112 0.109 0.241 0.201 0.382 0.272l0.009 0.004c0.035 0.019 0.135-0.027 0.166-0.070s0-0.118-0.030-0.166c-0.056-0.1-0.129-0.183-0.209-0.293l0.261 0.015 0.7 0.646 0.085-0.031q-0.089-0.375-0.178-0.75l0.1-0.050c0.111 0.148 0.228 0.291 0.333 0.444 0.107 0.162 0.275 0.277 0.471 0.309l0.004 0.001c-0.057-0.34-0.11-0.66-0.163-0.98l0.083-0.017 0.331 0.968 0.338-0.046c0.056-0.307 0.1-0.535 0.14-0.763h0.061v1.090l0.443-0.265c0.1-0.287 0.226-0.633 0.349-0.978l-0.082-0.062-0.606 0.256c0.161-0.6 0.131-0.706-0.137-0.635l-0.077 0.13c-0.136-0.178-0.239-0.128-0.356 0.021-0.057 0.072-0.17 0.1-0.286 0.165-0.012-0.217-0.022-0.4-0.031-0.567-0.051-0.019-0.11-0.030-0.172-0.030-0.203 0-0.378 0.119-0.459 0.292l-0.001 0.003c-0.045 0.078-0.119 0.135-0.207 0.156l-0.002 0c-0.043 0.010-0.123-0.078-0.163-0.137-0.059-0.085-0.074-0.221-0.149-0.268-0.051-0.024-0.11-0.038-0.172-0.038-0.049 0-0.097 0.009-0.141 0.025l0.003-0.001c-0.087 0.029-0.152 0.124-0.226 0.189zM11.795 8.519c-0.045-0.029-0.107-0.092-0.13-0.080-0.072 0.031-0.129 0.084-0.164 0.151l-0.001 0.002c-0.062 0.211-0.087 0.433-0.15 0.645s-0.076 0.38 0.2 0.417l0.042 0.16 0.574-0.956-0.057-0.066-0.43 0.143-0.042-0.058zM8.746 10.072l-0.431 0.128c0.019 0.33 0.464 0.834 0.754 0.871l-0.018-0.284-0.070 0.019zM11.795 9.607l0.045 0.042 0.5-0.307-0.064-0.142 0.127-0.334-0.114-0.054q-0.247 0.395-0.494 0.792zM6.964 8.606l-0.142 0.21 0.418 0.26 0.079-0.092zM7.727 9.807l0.070-0.1c-0.082-0.067-0.173-0.133-0.268-0.193l-0.012-0.007c-0.037-0.012-0.080-0.018-0.124-0.018-0.016 0-0.032 0.001-0.048 0.003l0.002-0-0.027 0.079z"></path>
<path d="M16.977 17.897l0.2-0.1-0.048-0.054h-0.678l-0.513 0.756-0.4-0.415-0.043-0.239-0.306 0.286-0.455-0.385c-0.187 0.151-0.062 0.548 0.194 0.672 0.107-0.125 0.107-0.125 0.317 0.069 0.54-0.23 0.409 0.237 0.5 0.517l0.112-0.23h0.055c-0.012 0.090-0.019 0.194-0.019 0.299 0 0.052 0.002 0.105 0.005 0.156l-0-0.007c0.033 0.162 0.083 0.305 0.15 0.438l-0.005-0.010c0.007 0.016 0.094 0 0.143 0 0.065-0.014 0.12-0.029 0.174-0.048l-0.010 0.003-0.060 0.3 0.11 0.1v0.143l0.588 0.542-0.039 0.050-0.145-0.056-0.206 0.118-0.176-0.25-0.051 0.027 0.115 0.272-0.2 0.263 0.085 0.1 0.283-0.137-0.341 0.537v0.442l0.164 0.036-0.181 0.382 0.009 0.006-0.369 0.847c-0.046-0.021-0.086-0.045-0.123-0.072l0.002 0.001c-0.536-0.611-1.1-1.2-1.6-1.844-0.303-0.389-0.636-0.73-1.002-1.032l-0.011-0.009c-0.486-0.408-0.818-0.929-1.094-1.489-0.238-0.483-0.427-1-0.714-1.449-0.242-0.383-0.585-0.7-0.9-1.039q-0.436-0.473-0.9-0.919c-0.102-0.079-0.218-0.156-0.339-0.225l-0.015-0.008c-0.091-0.077-0.173-0.154-0.251-0.235l-0.001-0.001-0.084-0.016-0.28-0.315h-1.011l0.032-0.143-0.129 0.1c-0.083-0.135 0.068-0.4 0.309-0.584 0.189-0.142 0.37-0.292 0.57-0.452l0.131 0.081 0.167-0.3 0.1 0.144 0.081-0.18v0.228l0.148-0.077 0.3 0.074 0.085-0.106 0.42 0.074-0.068 0.142 0.328 0.024 0.25 0.214-0.86 0.183 0.006 0.052 0.184 0.023 0.276 0.216-0.617 0.164v0.048l0.793 0.2 0.158-0.079 0.155 0.159-0.165 0.116-0.007 0.149-0.228-0.137-0.030 0.058 0.938 0.483c0.016-0.093 0.026-0.151 0.044-0.262l0.211 0.271-0.129 0.111 0.386 0.327 0.165-0.078 0.22 0.232 0.1-0.011 0.479 0.939 0.038-0.18 0.249 0.2-0.026 0.183 0.266 0.237 0.027-0.018-0.094-0.192 0.048-0.050 0.513 0.478 0.027-0.019c-0.155-0.225-0.312-0.447-0.462-0.674-0.077-0.115-0.14-0.238-0.216-0.368l0.119-0.108 0.128 0.034 0.252-0.072 0.052-0.149-0.254-0.279 0.379 0.075-0.146-0.163 0.065 0.006 0.331-0.208c-0.031-0.181-0.194-0.22-0.333-0.252-0.112 0.194-0.212 0.37-0.3 0.526l-0.405-0.1 0.142 0.2-0.033 0.053-0.778-0.417 0.433 0.025 0.006-0.073 0.314 0.062 0.021-0.067-0.4-0.154-0.029 0.084-0.5-0.165c0.028-0.086 0.040-0.123 0.071-0.216h-0.53l0.119 0.191-0.308-0.2 0.023 0.106-0.677-0.525c0.012-0.020 0.048-0.076 0.1-0.157l-0.232-0.173 0.010-0.028 0.171 0.059 0.018-0.052 0.661 0.229 0.1-0.048 0.164 0.143-0.192-0.027 0.083 0.124-0.269-0.037-0.014 0.080c0.359 0.085 0.792-0.084 1.054 0.3l0.275-0.181 0.673 0.307 0.016-0.028-0.23-0.174 0.219-0.279 0.355 0.149h0.612l0.086-0.142 0.832 0.133 0.008-0.056 0.2 0.048-0.108 0.068 0.056 0.016-0.161 0.793-0.219 0.116 0.367 0.219 0.082 0.233-0.6-0.334c-0.171 0.208-0.078 0.413 0.165 0.473l0.050-0.142c0.328-0.066 0.4 0.474 0.773 0.3l0.7 0.231 0.051 0.216 0.361-0.266 0.207-0.572 0.127-0.058c0.023-0.2 0.146-0.232 0.329-0.208 0.291 0.039 0.567 0.015 0.716-0.335l-0.491-0.068 0.125-0.114-0.179-0.107-0.105-0.275c0.155 0.076 0.272 0.175 0.4 0.184s0.253-0.070 0.385-0.113l0.324 0.263v-0.151c0.242-0.261 0.242-0.261 0.151-0.46 0.115 0.027 0.215 0.061 0.31 0.104l-0.010-0.004c0.097 0.068 0.182 0.138 0.261 0.214l-0.001-0.001 0.029 0.148 0.155 0.040 0.1 0.13-0.267-0.019-0.292-0.129-0.039 0.048 0.232 0.279-0.006 0.129 0.038 0.022 0.086-0.147c0.164-0.077 0.336 0.062 0.4 0.378l-0.242-0.18 0.058 0.225h-0.179c-0.028 0.072-0.056 0.148-0.084 0.224 0.331 0.129 0.61 0.1 0.731-0.075l-0.094-0.219 0.028-0.015 0.378 0.516-0.263-0.178-0.19 0.209 0.465 0.541-0.13 0.045 0.2 0.288 0.089-0.217 0.146 0.078v-0.151l0.062-0.011q0.062 0.306 0.121 0.613l-0.073 0.025-0.185-0.152c0.082 0.154 0.13 0.246 0.185 0.35l-0.259-0.093c-0.045-0.079-0.089-0.159-0.133-0.238l-0.035 0.020 0.060 0.208-0.035 0.020-0.141-0.172-0.33 0.13c-0.146-0.070-0.328-0.2-0.529-0.242-0.282-0.041-0.528-0.172-0.714-0.361l-0-0c-0.029-0.032-0.176 0.046-0.268 0.074l0.011 0.077-0.552-0.168 0.4-0.488-0.070-0.164 0.314-0.24c-0.339-0.1-0.7 0.056-0.743 0.31l-0.176 0.084c0.034 0.12 0.065 0.232 0.114 0.408l-0.127-0.1-0.445 0.3c0-0.013 0 0.021-0.013 0.1 0.373-0.047 0.479 0.226 0.62 0.516l-0.311 0.076 0.042-0.3-0.068-0.013c-0.063 0.158-0.127 0.316-0.19 0.473l0.057 0.047 0.239-0.094 0.144 0.166c-0.060 0.046-0.127 0.086-0.2 0.118l-0.006 0.003c-0.103 0.035-0.221 0.058-0.345 0.063l-0.002 0c-0.101-0.019-0.192-0.049-0.276-0.092l0.006 0.003 0.268-0.2c-0.033-0.152-0.064-0.282-0.103-0.43zM13.869 17.621c0.14-0.31-0.156-0.394-0.233-0.562-0.064-0.142-0.242-0.148-0.4-0.015l0.115 0.2 0.154-0.058 0.213 0.134-0.044 0.131zM19.077 17.269l0.716 0.218-0.3-0.215-0.242-0.342-0.055 0.035 0.111 0.21-0.26-0.054zM13.758 17.762l0.181 0.174c-0.019-0.232-0.355-0.506-0.6-0.457l0.318 0.358z"></path>
<path d="M15.22 30.689c0.035-0.101 0.064-0.221 0.082-0.345l0.001-0.011q0.069-1.323 0.123-2.648c-0.009-0.068-0.026-0.13-0.053-0.188l0.002 0.004c-0.069 0.013-0.131 0.032-0.189 0.057l0.006-0.002c-0.544 0.305-0.7 0.818-0.8 1.393-0.049 0.288-0.217 0.561-0.357 0.827-0.179 0.34-0.384 0.667-0.578 1-0.022 0.038-0.040 0.078-0.092 0.076 0.352-1.028 0.7-2.055 1.083-3.159-0.156 0.078-0.238 0.111-0.311 0.157s-0.142 0.108-0.242 0.187c0.007-0.071 0-0.128 0.015-0.14 0.176-0.118 0.346-0.293 0.539-0.326 0.4-0.069 0.492-0.384 0.637-0.668 0.012-0.026 0.022-0.056 0.030-0.088l0.001-0.004 0.48 0.515c0.125-0.2 0.224-0.338 0.3-0.487s0.128-0.314 0.2-0.49c0.078 0.043 0.143 0.084 0.206 0.129l-0.006-0.004c0.383 0.3 0.467 0.294 0.763-0.064l0.207 0.052c-0.018-0.2-0.034-0.387-0.051-0.569l0.072-0.060c0.255 0.351 0.581 0.372 0.976 0.229l-0.163-0.481 0.57 0.129 0.028-0.067c0.593 0.3 0.743 0.98 1.175 1.421l-0.238-0.223c-0.2-0.191-0.394-0.389-0.606-0.566-0.047-0.040-0.212-0.034-0.231 0-0.096 0.18-0.283 0.3-0.497 0.3-0.001 0-0.002 0-0.003 0h0c-0.046 0.014-0.085 0.032-0.122 0.055l0.002-0.001 0.716 1.439-0.041 0.028q-0.49-0.725-0.976-1.445l-0.849 0.471c0.070 0.371 0.121 0.816 0.242 1.242 0.2 0.688 0.439 1.361 0.657 2.042 0.062 0.194 0.1 0.394 0.156 0.591s0.178 0.276 0.378 0.2c0.3-0.114 0.587-0.173 0.921-0.073 0.4 0.118 0.574-0.092 0.6-0.573l0.2-0.393c0.13 0.149 0.247 0.3 0.383 0.435 0.208 0.2 0.874 0.125 1.010-0.13 0.039-0.074 0-0.222-0.051-0.308-0.162-0.271-0.346-0.53-0.565-0.86 0.513 0.1 0.646 0.537 1 0.772 0.079-0.047 0.173-0.079 0.272-0.092l0.004-0c0.131 0.001 0.251 0.048 0.346 0.124l-0.001-0.001c0.4 0.375 0.571 0.41 1.043 0.118 0.071-0.044 0.1-0.191 0.109-0.294 0.014-0.147 0.046-0.2 0.21-0.159s0.359-0.018 0.514 0.038c0.272 0.1 0.516 0.279 0.789 0.377 0.166 0.048 0.357 0.076 0.554 0.076 0.022 0 0.043-0 0.065-0.001l-0.003 0c0.029 0 0.106-0.156 0.087-0.179-0.147-0.177-0.313-0.337-0.469-0.507-0.038-0.048-0.074-0.102-0.106-0.158l-0.003-0.006 0.051-0.040c0.141 0.094 0.28 0.19 0.423 0.28s0.283 0.168 0.428 0.255c0.049-0.065 0.082-0.107 0.151-0.2l0.919 0.4c0-0.187 0.025-0.323-0.007-0.445-0.054-0.138-0.119-0.257-0.196-0.367l0.004 0.006c0.044 0 0.073-0.009 0.085 0 0.392 0.34 0.9 0.22 1.349 0.326 0.069 0.017 0.176-0.133 0.311-0.243 0.132 0.075 0.318 0.189 0.51 0.288s0.4 0.181 0.4 0.532l-0.38 0.072c-0.117 0.233-0.32 0.042-0.519-0.028-0.088-0.026-0.199-0.050-0.313-0.068l-0.016-0.002c0.042 0.337-0.144 0.388-0.343 0.443-0.119 0.032-0.232 0.146-0.342 0.138-0.209-0.020-0.4-0.073-0.576-0.155l0.011 0.005c-0.161-0.071-0.252-0.090-0.345 0.1-0.060 0.111-0.16 0.193-0.281 0.228l-0.003 0.001c-0.307 0.059-0.623 0.070-0.935 0.111-0.287 0.037-0.573 0.087-0.86 0.132-0.011 0.003-0.024 0.004-0.037 0.004-0.035 0-0.068-0.011-0.095-0.030l0 0 0.377-0.3-0.006-0.080c-0.071 0-0.185-0.028-0.206 0.005-0.234 0.356-0.622 0.326-0.967 0.409-0.117 0.029-0.224 0.1-0.34 0.135-0.046 0.014-0.1 0.023-0.155 0.023-0.023 0-0.045-0.001-0.067-0.004l0.003 0c-0.185-0.019-0.368-0.049-0.552-0.075-0.039-0.006-0.077-0.015-0.127-0.025 0.020-0.060 0.034-0.106 0.070-0.214-0.034-0.005-0.073-0.008-0.112-0.008-0.050 0-0.099 0.005-0.146 0.014l0.005-0.001c-0.295 0.122-0.583 0.259-0.873 0.393-0.048 0.023-0.112 0.047-0.131 0.088-0.112 0.247-0.3 0.253-0.523 0.188-0.159-0.046-0.315-0.129-0.476-0.139-0.049-0.004-0.106-0.006-0.164-0.006-0.183 0-0.362 0.021-0.534 0.060l0.016-0.003c-0.434 0.1-0.857 0.257-1.292 0.363-0.085 0.019-0.183 0.030-0.284 0.030-0.090 0-0.178-0.009-0.263-0.025l0.009 0.001c-0.066-0.011-0.135-0.138-0.162-0.225-0.039-0.123-0.014-0.268-0.063-0.385-0.161-0.387-0.489-0.454-0.837-0.2-0.427 0.306-0.953 0.498-1.523 0.522l-0.006 0c-0.364 0.026-0.477-0.138-0.386-0.49 0.042-0.161-0.127-0.309-0.325-0.269-0.144 0.026-0.272 0.070-0.391 0.132l0.008-0.004c-0.636 0.355-1.328 0.311-2.014 0.292-0.169 0-0.214-0.206-0.1-0.4 0.153-0.255 0.328-0.5 0.47-0.757 0.188-0.344 0.352-0.7 0.53-1.051 0.032-0.050 0.067-0.093 0.105-0.132l-0 0 0.072 0.038c-0.3 0.66-0.6 1.321-0.9 1.97 0.028 0.032 0.036 0.049 0.046 0.051 0.545 0.078 1.121 0.243 1.567-0.214 0.251-0.258 0.518-0.207 0.8-0.2 0.113 0.007 0.217 0.020 0.318 0.038l-0.017-0.003zM15.313 31.289c0.083 0.011 0.144 0.039 0.19 0.023 0.272-0.084 0.495-0.169 0.712-0.267l-0.038 0.016c0.269-0.127 0.487-0.306 0.522-0.641 0.005-0.052 0.139-0.131 0.21-0.127 0.185 0.009 0.367 0.064 0.552 0.089 0.134 0.017 0.2-0.052 0.167-0.188-0.060-0.227-0.123-0.453-0.194-0.676-0.242-0.764-0.493-1.525-0.731-2.29-0.065-0.209-0.136-0.252-0.326-0.138-0.058 0.035-0.106 0.085-0.164 0.121-0.308 0.193-0.533 0.408-0.487 0.835 0.027 0.245-0.1 0.5-0.122 0.759-0.052 0.563-0.073 1.129-0.128 1.692-0.048 0.318-0.105 0.587-0.175 0.851l0.012-0.056z"></path>
<path d="M33.847 21.96c0.1 0.030 0.205 0.062 0.308 0.090 0.761 0.2 1.521 0.41 2.284 0.609 0.051 0.013 0.117-0.027 0.219-0.052l-0.265-0.241c-0.216 0.106-0.36-0.047-0.541-0.131-0.266-0.119-0.601-0.243-0.945-0.347l-0.066-0.017c-0.179-0.060-0.36-0.113-0.544-0.155-0.073-0.016-0.157-0.025-0.243-0.025-0.043 0-0.086 0.002-0.128 0.007l0.005-0c-0.245-0.054-0.281-0.147-0.145-0.419 1.259 0.279 2.559 0.43 3.731 1.063l0.032-0.063-0.505-0.35 0.022-0.079-0.107-0.128 0.009-0.129c-0.246-0.144-0.451-0.28-0.649-0.426l0.020 0.014c-0.178-0.142-0.321-0.328-0.487-0.486-0.077-0.060-0.164-0.117-0.255-0.166l-0.010-0.005c0.085-0.007 0.144-0.029 0.182-0.011 0.257 0.127 0.513 0.257 0.763 0.4 0.12 0.068 0.223 0.143 0.318 0.227l-0.002-0.001c0.123 0.109 0.233 0.232 0.348 0.35 0.009 0.009 0.007 0.028 0.016 0.037 0.239 0.23 0.479 0.461 0.719 0.69 0.071 0.051 0.132 0.108 0.186 0.172l0.001 0.002c0.186 0.314 0.371 0.628 0.534 0.954 0.1 0.212-0.024 0.329-0.187 0.371 0.141 0.214 0.291 0.47 0.429 0.734l0.023 0.050c0.128 0.276 0.256 0.616 0.361 0.965l0.015 0.058c0.025 0.080-0.056 0.194-0.1 0.329 0.041 0.054 0.075 0.117 0.099 0.184l0.001 0.005c0.028 0.13 0.086 0.326 0.025 0.385-0.084 0.081-0.275 0.1-0.4 0.073-0.153-0.033-0.29-0.144-0.434-0.221 0.172-0.295 0.147-0.361-0.084-0.51-0.111-0.073-0.197-0.175-0.247-0.296l-0.002-0.004c-0.015-0.041 0.148-0.147 0.26-0.253-0.014-0.016-0.047-0.084-0.1-0.107-0.526-0.229-1.054-0.453-1.583-0.676-0.174-0.060-0.325-0.142-0.46-0.243l0.004 0.003 1.255 0.431 0.029-0.179 0.77 0.134c-0.1-0.124-0.145-0.222-0.221-0.271-0.529-0.336-1.115-0.505-1.73-0.607-0.426-0.071-0.842-0.2-1.265-0.29-0.253-0.056-0.516-0.077-0.763-0.15-0.363-0.107-0.716-0.248-1.074-0.373-0.034-0.013-0.072-0.021-0.113-0.021-0.028 0-0.055 0.004-0.080 0.010l0.002-0-0.446-0.327 0.038-0.066 0.525 0.23v-0.046l0.613 0.161v-0.015l0.554 0.211v-0.067l2.9 0.575 0.009-0.030-0.475-0.264c0.115-0.155 0.115-0.155 1.040 0.219-0.039-0.048-0.075-0.102-0.106-0.159l-0.003-0.006c-0.019-0.061-0.034-0.133-0.042-0.207l-0-0.005-3.87-1.030z"></path>
<path d="M16.111 11.856l-0.017 0.048 0.3 0.476 0.616 0.205-0.080 0.134c0.066-0.025 0.105-0.041 0.144-0.057l0.215 0.079-0.043 0.053c0.028 0.088 0.057 0.177 0.087 0.27l-0.125 0.055v0.056l0.568 0.069-0.28-0.239 0.041-0.046 0.12 0.1 0.328 0.019-0.015 0.031c0.127 0.234 0.242 0.442 0.369 0.675l-0.4 0.049 0.242 0.469-0.026 0.006 0.175 0.45-0.687 0.123 0.127 0.163h-0.193l-0.013-0.152c-0.243-0.074-0.319 0.155-0.4 0.271-0.135 0.2-0.22 0.187-0.379 0.043-0.082-0.073-0.215-0.088-0.319-0.141-0.057-0.037-0.106-0.079-0.15-0.125l-0-0c0.034-0.039 0.071-0.063 0.075-0.092 0.003-0.030 0.004-0.065 0.004-0.1s-0.001-0.070-0.004-0.105l0 0.005c-0.071 0.009-0.167-0.009-0.209 0.031-0.165 0.157-0.541 0.282-0.7 0.19v-0.472l-0.069-0.012 0.094-0.074c0.016-0.229 0.155-0.216 0.262-0.161l-0.408-0.753 0.023-0.022-0.231-0.712-0.244 0.285 0.131 0.155-0.024 0.045-0.293-0.144 0.082-0.15c-0.159-0.128-0.048-0.5-0.438-0.444l0.007-0.161c0.1-0.028 0.255-0.043 0.26-0.077 0.007-0.094 0.012-0.203 0.012-0.313 0-0.083-0.002-0.166-0.007-0.248l0.001 0.011-0.083-0.043c0.11-0.010 0.22-0.016 0.329-0.031s0.207-0.040 0.369-0.073c-0.078-0.079-0.15-0.165-0.213-0.257l-0.004-0.006c-0.026-0.068-0.045-0.146-0.055-0.228l-0-0.004 0.063-0.038 0.364 0.21-0.043 0.052z"></path>
<path d="M26.764 21.803l-0.2-0.193 0.118-0.142v-0.1l0.112-0.209-0.038-0.028-0.178 0.14-0.146-0.042-0.015 0.028 0.146 0.112-0.024 0.115-0.167-0.129c-0.344-0.161-0.459 0.228-0.736 0.3l-0.219-0.134 0.008-0.070 0.459-0.058v-0.039h-0.568l0.17-0.146 0.071 0.009c-0.161-0.224-0.525-0.023-0.626-0.309l-0.23-0.287 0.145-0.2-0.246 0.066c-0.036-0.056-0.076-0.121-0.123-0.195l-0.127-0.011c-0.081-0.139-0.174-0.233-0.36-0.136-0.042 0.021-0.14-0.067-0.213-0.105l0.027-0.062 0.114-0.031-0.2-0.215 0.063-0.1-0.208-0.227 0.079-0.167-0.043-0.034-0.073 0.158c-0.134-0.129-0.238-0.229-0.4-0.383l0.154 0.055 0.223-0.077c0.052-0.22-0.027-0.537 0.354-0.57 0.085-0.008 0.1 0.005 0.406 0.483l0.211 0.023-0.274 0.744 0.272-0.148 0.158 0.009c-0.025-0.068-0.042-0.113-0.067-0.183l0.7 0.463c0.033-0.106 0.053-0.168 0.073-0.231l-0.045-0.015-0.1 0.164c-0.11-0.173-0.2-0.318-0.317-0.5l0.195 0.028c0.148-0.171 0.184-0.34-0.117-0.5l0.544 0.175 0.018-0.034-0.662-0.343 0.231 0.030-0.094-0.15 0.246 0.195 0.031-0.056 0.708 0.38-0.092 0.117 0.233 0.063c0.020 0.245 0.039 0.473 0.058 0.7h0.066l-0.058 0.154 0.145-0.077 0.2 0.23-0.053 0.061 0.36 0.261-0.041 0.058-0.129-0.075v0.321l-0.1 0.073 0.488 0.438-0.257 0.053 0.151 0.107 0.124-0.068 0.2 0.141-0.154 0.035c0.047 0.1 0.090 0.194 0.134 0.287-0.046-0.034-0.093-0.066-0.2-0.139h-0.406z"></path>
<path d="M17.343 23.122c0.184 0.074 0.371 0.138 0.548 0.225 0.114 0.069 0.212 0.138 0.305 0.213l-0.005-0.004c0.257 0.191 0.551 0.383 0.856 0.558l0.044 0.023c0.342 0.173 0.714 0.285 1.072 0.424l0.052-0.1-2.2-1.2c0.187-0.227 0.381-0.157 0.518-0.085 0.413 0.214 0.8 0.486 1.213 0.691 0.358 0.176 0.686 0.413 1.123 0.442 0.336 0.023 0.664 0.187 0.993 0.3 0.047 0.016 0.075 0.086 0.157 0.184l-0.907 0.114 0.734 0.507-0.030 0.048-0.941-0.473 0.088-0.154-0.154-0.033-0.193 0.18c0.381 0.111 0.264 0.436 0.356 0.715-0.136-0.073-0.248-0.136-0.362-0.194-0.066-0.033-0.136-0.058-0.2-0.086-0.026 0.060-0.055 0.136-0.079 0.214l-0.004 0.016c-0.001 0.013-0.002 0.028-0.002 0.044 0 0.033 0.004 0.066 0.011 0.097l-0.001-0.003-0.224 0.114 0.482 0.329-0.075 0.085-0.741-0.491c-0.039 0.114-0.089 0.214-0.151 0.305l0.003-0.004c-0.036 0.041-0.181 0.057-0.206 0.026-0.2-0.244-0.38-0.5-0.565-0.756-0.013-0.032-0.023-0.070-0.029-0.109l-0-0.003 0.755 0.067-0.239-0.357 0.289-0.108c-0.134-0.1-0.252-0.2-0.377-0.285-0.39-0.266-0.78-0.532-1.178-0.786-0.081-0.045-0.178-0.071-0.281-0.071-0.030 0-0.060 0.002-0.088 0.007l0.003-0-0.436-0.524z"></path>
<path d="M38.98 27.878l-0.254 0.021 0.057 0.2c-0.3 0.069-0.459-0.137-0.662-0.246l0.234-0.179-0.219-0.123 0.1-0.306-0.552-0.442 0.37 0.182 0.020-0.026-0.259-0.259c-0.547-0.549-1.25-0.834-1.939-1.14-0.546-0.243-1.1-0.476-1.646-0.712-0.015-0.008-0.032-0.012-0.050-0.012s-0.035 0.004-0.051 0.012l0.001-0 1.884 0.974-0.019 0.037-3.23-1.637 0.021-0.048c0.221 0.083 0.441 0.169 0.663 0.249 1.252 0.451 2.509 0.89 3.757 1.355 0.508 0.19 1.024 0.406 1.3 0.919 0.184 0.334 0.328 0.69 0.484 1.039 0.019 0.035-0.001 0.086-0.010 0.142z"></path>
<path d="M11.407 12.892l0.031-0.381c0.473-0.432 0.789-0.524 1.062-0.32 0.166 0.147 0.27 0.361 0.27 0.599 0 0.108-0.022 0.212-0.061 0.306l0.002-0.005c-0.15 0.3-0.416 0.406-0.79 0.306-0.331-0.088-0.471-0.239-0.514-0.505z"></path>
<path d="M16.469 23.689c-0.37 0.961-1.13 1.569-1.8 2.243-0.268 0.269-0.635 0.438-1 0.679 0.010-0.086 0.033-0.165 0.069-0.236l-0.002 0.004c0.275-0.337 0.559-0.667 0.843-1l0.248 0.138-0.009-0.183 0.066 0.039c0.163-0.253 0.322-0.508 0.493-0.756 0.061-0.087 0.135-0.16 0.219-0.219l0.003-0.002c0.22-0.154 0.5-0.239 0.545-0.569 0.010-0.067 0.128-0.13 0.208-0.172 0.034-0.018 0.098 0.027 0.117 0.034z"></path>
<path d="M23.637 16.093c-0.108-0.030-0.202-0.072-0.288-0.125l0.005 0.003c-0.48-0.394-0.955-0.8-1.426-1.2-0.1-0.099-0.194-0.203-0.281-0.313l-0.005-0.007 0.017 0.137-0.175-0.126-0.289-0.389c0.104 0.014 0.199 0.040 0.287 0.077l-0.007-0.003c0.8 0.491 1.442 1.163 2.118 1.8 0.025 0.028 0.049 0.059 0.070 0.091l0.002 0.003z"></path>
<path d="M18.062 12.032l-0.461-0.255 0.044-0.094 0.658 0.291-0.068 0.114 0.86 0.529-0.035 0.108-0.452-0.1 0.091-0.109-0.075-0.068-0.2 0.1 0.076-0.161-0.116-0.077-0.109 0.14-0.881-0.441-0.005 0.019-0.326-0.089-0.016-0.183-0.17 0.192 0.015-0.144c0.443-0.261 0.753 0.209 1.17 0.228z"></path>
<path d="M20.739 14.746l1.043 0.5 0.016-0.025c-0.045-0.034-0.091-0.067-0.137-0.1l0.026-0.047 1.526 0.875-0.23 0.1c-0.785-0.329-1.575-0.704-2.244-1.303z"></path>
<path d="M26.385 24.845c1.281 0.7 2.639 1.273 3.691 2.339l0.053-0.058-0.357-0.404c0.22 0.008 0.488 0.331 0.79 0.927-0.626-0.468-1.288-1-1.993-1.477s-1.454-0.889-2.183-1.327z"></path>
<path d="M15.092 10.607l-0.478 0.061c0.188 0.2 0.219 0.39 0.090 0.586l-0.249-0.059-0.519-0.759 0.53 0.026 0.036 0.059 0.045-0.047 0.259-0.062h-0.010l0.058 0.076v0.005h0.059l0.078 0.046h0.1z"></path>
<path d="M13.276 10.22c0.12-0.18 0.428-0.193 0.777-0.021 0.177-0.391 0.343-0.547 0.551-0.472 0.1 0.036 0.17 0.149 0.305 0.276-0.606 0.081-1.052 0.617-1.633 0.217z"></path>
<path d="M31.107 29.075c-0.557-0.912-1.421-1.486-2.27-2.077l0.049-0.070c0.242 0.127 0.446 0.254 0.641 0.395l-0.016-0.011c0.482 0.392 0.951 0.8 1.417 1.213 0.101 0.099 0.188 0.211 0.259 0.334l0.004 0.007c0.027 0.044 0 0.119 0 0.18z"></path>
<path d="M24.496 21.889c0.248 0.086 0.423 0.433 0.754 0.27-0.019-0.108-0.032-0.187-0.046-0.266l0.052-0.013q0.119 0.222 0.239 0.444l-0.022 0.012q0.182 0.311 0.365 0.619l-0.060 0.066-1.31-1.066z"></path>
<path d="M26.978 22.754l-0.9-0.062-0.007-0.112 0.612-0.122-0.321-0.1 0.008-0.052 0.27-0.017-0.666-0.262 0.029-0.134 0.417 0.167 0.028-0.085 0.255 0.074 0.161 0.334-0.070 0.021z"></path>
<path d="M17.731 17.633l0.46 0.242-0.132-0.225 0.027-0.029 0.238 0.172c0.149-0.173 0.347-0.149 0.562 0.113l-0.285-0.1-0.038 0.223 0.062 0.21c-0.522 0.149-0.655-0.246-0.894-0.606z"></path>
<path d="M19.634 14.028l-0.457-0.183 0.020-0.077-0.247 0.046c0.129 0.056 0.2 0.081 0.266 0.116s0.122 0.074 0.185 0.113c-0.343 0.143-0.5-0.144-0.717-0.314l0.010-0.134-0.123-0.079v-0.067c0.089 0.003 0.175 0.013 0.257 0.032l-0.009-0.002c0.145 0.045 0.285 0.1 0.428 0.158l0.034-0.076-0.070-0.047 0.046-0.028-0.033-0.129 0.054-0.030 0.217 0.268-0.152 0.079 0.214 0.118-0.209 0.009v0.043h0.167l0.116 0.187z"></path>
<path d="M17.643 9.155c-1.047 0.011-2.048 0.19-2.983 0.511l0.067-0.020c-0.014 0-0.038-0.018-0.056-0.028 0.128-0.266 2.562-0.656 2.972-0.463z"></path>
<path d="M13.344 14.29c0.452-0.326 0.868-0.339 1.019-0.078l-0.178 0.068-0.035 0.113-0.463 0.109z"></path>
<path d="M29.74 28.279c0.4 0.1 1.556 1.062 1.508 1.3-0.056-0.017-0.124-0.018-0.162-0.052-0.453-0.417-0.901-0.835-1.346-1.248z"></path>
<path d="M30.153 29.995c0.069-0.123 0.093-0.165 0.133-0.235l-0.607-0.608 0.065-0.071 0.906 0.7-0.041 0.085z"></path>
<path d="M25.598 23.229c0.639 0.073 1.015 0.555 1.446 0.953z"></path>
<path d="M18.756 24.622c-0.454 0.014-0.845-0.13-0.867-0.313 0.357-0.139 0.858 0.037 0.867 0.313z"></path>
<path d="M19.133 10.847l-2.351-0.175 0.012-0.1 2.345 0.23z"></path>
<path d="M22.778 17.709l-0.57-0.188-0.65-0.153 0.014-0.070 0.867 0.089-0.084 0.136 0.421-0.161 0.026 0.037-0.135 0.080 0.142 0.162z"></path>
<path d="M19.99 18.96c-0.131 0.035-0.274 0.119-0.39 0.091-0.151-0.036-0.28-0.162-0.418-0.249l0.040-0.108 0.487 0.085v0.012l0.277 0.055z"></path>
<path d="M19.403 13.075l-0.077-0.134-0.124-0.018 0.074-0.1 1.717 1.088-0.022 0.035-0.845-0.474v0.010l-0.694-0.444z"></path>
<path d="M25.812 22.451l0.512 0.541c0.010 0.045 0.025 0.115 0.042 0.191-0.332-0.003-0.588-0.339-0.554-0.732z"></path>
<path d="M19.63 14.031l0.14-0.007 0.444 0.241-0.005 0.086 0.411 0.135-0.012 0.083c-0.107-0.006-0.232 0.019-0.319-0.026-0.227-0.128-0.418-0.254-0.601-0.391l0.014 0.010c-0.036-0.025-0.046-0.089-0.068-0.134z"></path>
<path d="M18.37 11.509c0.7 0 1.347 0.269 2.007 0.47z"></path>
<path d="M15.712 10.791l0.958 0.162-0.022 0.129-0.958-0.162z"></path>
<path d="M27.898 20.621c0.011 0.045 0.023 0.091 0.036 0.143l-0.081 0.1-0.5-0.267 0.005-0.023 0.17 0.038c-0.012-0.049-0.020-0.084-0.032-0.138z"></path>
<path d="M14.399 12.806l0.106 0.152-0.672 0.219-0.017-0.111z"></path>
<path d="M14.597 14.383l0.1 0.433-0.384 0.1 0.212-0.293-0.142-0.1z"></path>
<path d="M18.689 14.509l0.018-0.171-0.2-0.134 0.136-0.2 0.059 0.186 0.045-0.028 0.2 0.318-0.055 0.061z"></path>
<path d="M20.202 15.33l-0.124-0.091-0.087 0.21-0.326-0.14 0.4-0.226 0.164 0.224z"></path>
<path d="M14.052 12.657l-0.169-0.192 0.005-0.067c0.131 0.008 0.252 0.024 0.37 0.046l-0.018-0.003c0.027 0.006 0.038 0.084 0.056 0.13z"></path>
<path d="M14.376 13.454l-0.5-0.074v-0.067l0.345-0.161z"></path>
<path d="M27.541 22.021l0.205 0.356 0.195 0.169-0.316 0.126-0.124-0.1 0.089-0.114 0.049 0.1 0.052-0.015z"></path>
<path d="M14.988 10.546v0c0.019-0.029 0.038-0.058 0.058-0.087v0.010l-0.009-0.010h0.056l0.155 0.071c-0.007-0.003-0.011-0.009-0.013-0.016l-0-0h0.003v0.070l-0.085 0.061-0.065-0.039c0.008-0.015 0.017-0.029 0.026-0.043v0l-0.030-0.017h-0.1z"></path>
<path d="M16.828 11.258h0.055v0.029l-0.032 0.029-0.031 0.031-0.195-0.075 0.164-0.032v0.033h0.032z"></path>
<path d="M16.883 11.256c0.031-0.011 0.066-0.018 0.103-0.018 0.003 0 0.006 0 0.009 0h-0c0.018 0 0.024 0.056 0.036 0.087l-0.068-0.018c0-0.014-0.011-0.028-0.017-0.042l-0.006-0.006v0.008l-0.066-0.018z"></path>
<path d="M16.936 11.362l-0.108-0.028 0.031-0.031h0.113v0.031l-0.031 0.031z"></path>
<path d="M15.369 10.483c-0.008 0.034-0.017 0.068-0.026 0.1v0h-0.060c0-0.026 0-0.052 0-0.078l0.082-0.024v0.009z"></path>
<path d="M14.908 10.495v0h-0.059v-0.005c0-0.025 0-0.050 0-0.075l-0.006 0.005 0.051-0.012 0.036 0.018z"></path>
<path d="M17.030 11.32l-0.094 0.042 0.031-0.031z"></path>
<path d="M15.233 10.575l0.014-0.057 0.048-0.010c0 0.026 0 0.051 0 0.077z"></path>
<path d="M14.516 10.463l-0.018 0.060-0.041-0.056z"></path>
<path d="M16.797 11.227l0.031 0.031h-0.032v-0.038z"></path>
<path d="M14.842 10.42l0.006-0.005z"></path>
<path d="M14.792 10.411h0.010z"></path>
<path d="M14.925 10.426l-0.033-0.017z"></path>
<path d="M15.096 10.453v0z"></path>
<path d="M14.852 10.492v0z"></path>
<path d="M15.042 10.546v0z"></path>
<path d="M14.988 10.546v0z"></path>
<path d="M15.114 10.561v0z"></path>
<path d="M16.801 11.22v0z"></path>
<path d="M16.799 11.255v0z"></path>
<path d="M16.857 11.307l-0.031 0.031z"></path>
<path d="M16.966 11.334l-0.031 0.031z"></path>
<path d="M16.912 11.31h-0.035v-0.032z"></path>
</symbol>
<symbol id="ladybug" viewBox="0 0 47 32">
<title>Ladybug</title>
<path d="M9.496 17.916c-0.384 0.016-1.845 0.66-2.634 1.844-1.054 1.582-1.714 3.82-1.317 6.059 0.122 0.727 0.683 1.994 1.844 2.502 0.348 0.153 1.186 0.264 2.108 0.132 1.695-0.245 3.339-0.403 5.004-1.449 1.030-0.645 1.975-3.208 0.791-4.61-0.916-1.085-2.108-1.58-3.428-3.293-0.689-0.901-1.294-1.234-2.367-1.185z"></path>
<path d="M23.457 17.65c-1.168-3.036-3.688-5.532-7.112-5.795-3.829-0.295-6.718 0.526-6.718 0.526-0.922 0.659-1.58 1.714-1.844 2.239-0.395 0.791-1.054 2.767-0.526 3.161s1.976-0.79 2.898-0.79 1.714 1.448 3.293 3.030c0.826 0.826 1.976 1.185 2.765 3.428 0.57 1.615-0.752 2.296 0 3.428 0.263 0.395 5.947 0.802 6.978-0.922 0.399-0.665 1.584-4.881 0.267-8.305zM10.813 16.728c-1.186-0.263-1.856 0.573-3.162 0.79-0.79 0.132 0.408-3.252 0.923-3.428 0.394-0.132 2.765 0 3.428 0.263s-0.406 2.549-1.189 2.375zM20.691 26.606c-0.528 0.394-4.029 0.367-4.216 0-0.526-1.054 0.528-0.659 0-3.951-0.048-0.299 3.098-0.612 3.428 0.263 0.393 1.054 1.355 3.262 0.788 3.69z"></path>
<path d="M0.189 22.506c1.945-0.215 3.817 0.274 5.631 0.933 0.245 0.086 0.343-0.295 0.105-0.382-1.845-0.668-3.762-1.165-5.737-0.946-0.245 0.027-0.253 0.422 0 0.395z"></path>
<path d="M9.766 28.041c0.182 0.592 0.463 1.147 0.595 1.755 0.038 0.146 0.060 0.313 0.060 0.485 0 0.195-0.028 0.384-0.081 0.562l0.004-0.014c-0.108 0.335-0.252 0.626-0.434 0.891l0.008-0.012c-0.141 0.213 0.201 0.411 0.34 0.2 0.405-0.612 0.651-1.307 0.518-2.044-0.122-0.676-0.428-1.278-0.629-1.927-0.075-0.245-0.457-0.14-0.381 0.104z"></path>
<path d="M30.306 0c-7.927 0-16.174 4.704-18.176 11.459 8.166-0.922 11.85 2.483 13.435 10.405 0.392 1.959 1.004 4.529 3.63 5.638 1.238 0.179 2.673 0.284 4.13 0.289l0.006 0c9.093 0 13.304-4.856 13.304-13.039s-7.235-14.752-16.329-14.752zM26.287 13.201c-1.152 1.039-2.86 1.025-3.814-0.034s-0.796-2.758 0.356-3.795 2.86-1.025 3.814 0.034 0.796 2.757-0.356 3.795zM28.368 2.765c-1.6 0.059-2.912-0.334-2.938-0.879s1.26-1.036 2.858-1.102 2.912 0.333 2.938 0.879-1.26 1.042-2.858 1.102zM38.996 22.946c-0.171 1.497-1.201 2.609-2.299 2.483s-1.848-1.441-1.678-2.938 1.201-2.609 2.299-2.484 1.85 1.442 1.678 2.939zM39.194 13.967c-1.162 0.46-2.596-0.411-3.204-1.948s-0.158-3.152 1.004-3.612 2.596 0.413 3.204 1.948 0.159 3.155-1.004 3.612zM45.896 18.435c-0.179-0.009-0.258-1.258-0.179-2.789s0.289-2.765 0.466-2.749 0.271 1.251 0.191 2.782-0.301 2.765-0.479 2.756z"></path>
</symbol>
<symbol id="leaf" viewBox="0 0 23 32">
<title>Maple Leaf</title>
<path d="M11.609 17.807c-0.469 0.233-0.785 0.816-1.337 0.622-0.988 0.104-1.901 0.185-2.809 0.303-0.424 0.056-0.839 0.189-1.259 0.275-0.081 0.017-0.172-0.016-0.258-0.026 0.030-0.075 0.037-0.179 0.092-0.232 0.449-0.441 0.952-0.836 1.347-1.32 0.241-0.299 0.405-0.671 0.455-1.077l0.001-0.010c0.037-0.361-0.327-0.509-0.673-0.611-0.898-0.267-1.792-0.566-2.685-0.856-0.324-0.105-0.646-0.22-0.964-0.34-0.028-0.010-0.052-0.102-0.037-0.141 0.1-0.257 0.257-0.502 0.299-0.766 0.026-0.153-0.075-0.389-0.2-0.496-0.299-0.26-0.662-0.449-0.973-0.703-0.085-0.069-0.071-0.254-0.114-0.381-0.129-0.387-0.224-0.792-0.404-1.151-0.374-0.744-1.006-1.225-1.767-1.538-0.1-0.041-0.219-0.031-0.329-0.123 0.265 0 0.539-0.043 0.794 0.007 0.835 0.168 1.659 0.492 2.494 0.524 0.735 0.025 1.26 0.281 1.812 0.693 0.26 0.195 0.67 0.18 1 0.291 0.449 0.15 0.887 0.332 1.329 0.502 0.038 0.014 0.070 0.043 0.009 0.005 0.331-0.198 0.622-0.338 0.864-0.539 0.058-0.047-0.021-0.31-0.089-0.449-0.572-1.149-1.157-2.292-1.734-3.438-0.154-0.307-0.299-0.618-0.435-0.934-0.011-0.026-0.018-0.056-0.018-0.087 0-0.026 0.005-0.051 0.013-0.075l-0 0.002c0.135 0.067 0.282 0.188 0.445 0.215 0.699 0.119 1.401 0.224 2.105 0.299 0.195 0.022 0.402-0.070 0.697-0.128-0.031-0.343-0.056-0.698-0.096-1.047-0.066-0.584-0.15-1.167-0.205-1.753-0.021-0.221 0.030-0.36 0.348-0.292 0.266 0.057 0.599 0.070 0.694-0.374 0.061-0.284 0.316-0.53 0.359-0.812 0.070-0.463 0.025-0.943 0.057-1.415 0.011-0.161 0.106-0.316 0.15-0.432 0.224 0.667 0.381 1.356 0.699 1.958 0.195 0.37 0.645 0.599 0.973 0.898 0.136 0.123 0.31 0.236 0.379 0.393 0.19 0.435 0.334 0.892 0.483 1.301l0.175 0.063c0.712 0.164 1.22-0.272 1.741-0.621s1.014-0.748 1.469-1.098c-0.038 0.135-0.099 0.395-0.186 0.647-0.271 0.792-0.582 1.571-0.818 2.373-0.206 0.7-0.313 1.429-0.501 2.135-0.081 0.267-0.209 0.498-0.376 0.694l0.002-0.003c-0.569 0.697-0.285 1.347 0.082 1.992 0.075 0.136 0.273 0.338 0.352 0.313 0.165-0.052 0.31-0.219 0.422-0.369 0.646-0.86 1.276-1.733 1.928-2.587 0.052-0.068 0.236-0.040 0.358-0.047 0.611-0.030 1.24 0.028 1.826-0.105 0.763-0.174 1.496-0.491 2.234-0.762 0.397-0.15 0.779-0.33 1.172-0.485 0.059-0.023 0.144 0.016 0.216 0.026-0.027 0.090-0.065 0.168-0.113 0.24l0.002-0.003c-0.37 0.399-0.807 0.748-1.104 1.197-0.234 0.352-0.322 0.81-0.429 1.233-0.034 0.132 0.168 0.349 0.114 0.449-0.224 0.383-0.446 0.71-0.688 1.020l0.015-0.020c-0.31 0.428-0.236 0.883 0.204 1.197 0.082 0.047 0.153 0.097 0.219 0.152l-0.003-0.002c0.073 0.080 0.142 0.167 0.207 0.258l0.006 0.009c-0.158 0.098-0.348 0.202-0.543 0.294l-0.036 0.015c-1.137 0.46-2.305 0.854-3.408 1.386-0.554 0.267-0.991 0.777-1.481 1.179-0.037 0.040-0.072 0.083-0.104 0.128l-0.002 0.004c0.536 0.253 1.073 0.459 1.562 0.748 0.748 0.442 1.463 0.94 2.188 1.422 0.032 0.022 0.041 0.146 0.035 0.15-0.085 0.042-0.184 0.069-0.288 0.075l-0.002 0c-0.533-0.044-1.065-0.156-1.595-0.146-1.064 0.020-2.139 0.023-3.185 0.188-0.868 0.137-1.623-0.007-2.379-0.38-0.030-0.015-0.171 0.117-0.208 0.203-0.444 1.029-0.915 2.050-1.308 3.099-0.64 1.71-0.703 3.505-0.599 5.299 0.083 1.379 0.268 2.752 0.407 4.128 0.049 0.496 0.104 0.991 0.14 1.488 0.007 0.095-0.061 0.28-0.092 0.279-0.187-0.009-0.363-0.032-0.534-0.067l0.022 0.004c0.524-1.609-0.099-3.157-0.141-4.707-0.067-2.384-0.178-4.758 0.766-7.026 0.253-0.607 0.513-1.211 0.769-1.817 0.013-0.029 0.097-0.566 0.107-0.605z"></path>
</symbol>
<symbol id="rose" viewBox="0 0 28 32">
<title>Rose</title>
<path d="M16.928 27.707c-0.729-0.124-1.313-0.246-1.902-0.311-0.191-0.021-0.394 0.066-0.345-0.228 0.014-0.085 0.171-0.146 0.257-0.219 0.046-0.036 0.083-0.082 0.108-0.134l0.001-0.002c0.007-0.020-0.061-0.063-0.082-0.102-0.096-0.178-0.219-0.35-0.273-0.54-0.048-0.132-0.075-0.284-0.075-0.443 0-0.058 0.004-0.116 0.011-0.172l-0.001 0.007c0.037-0.196 0.166-0.381 0.28-0.554 0.12-0.182 0.251-0.34 0.398-0.482l0.001-0.001c0.149-0.146 0.331-0.252 0.495-0.381 0.152-0.117 0.292-0.247 0.451-0.357 0.035-0.020 0.076-0.032 0.12-0.032 0.022 0 0.043 0.003 0.063 0.008l-0.002-0c0.197 0.047 0.364 0.101 0.526 0.167l-0.024-0.009c0.121 0.058 0.226 0.123 0.322 0.198l-0.004-0.003c0.141 0.101 0.281 0.205 0.414 0.317 0.038 0.032 0.051 0.095 0.104 0.113 0.084 0.081 0.161 0.168 0.23 0.261l0.004 0.006c0.072 0.112 0.135 0.241 0.183 0.378l0.004 0.013c0.027 0.074 0.043 0.159 0.043 0.247 0 0.021-0.001 0.041-0.003 0.061l0-0.003c-0.027 0.269-0.066 0.507-0.118 0.741l0.008-0.041c-0.038 0.116-0.087 0.218-0.149 0.31l0.003-0.005c-0.114 0.211-0.233 0.419-0.365 0.661 0.312-0.113 0.575-0.266 0.849-0.292 0.319-0.030 0.648 0.054 0.974 0.079 0.058 0.004 0.169-0.026 0.173-0.051 0.013-0.098 0.028-0.226-0.022-0.297-0.202-0.292-0.443-0.55-0.639-0.843-0.078-0.117-0.077-0.292-0.106-0.438-0.023-0.091-0.038-0.196-0.042-0.304l-0-0.003c-0.001-0.033-0.001-0.073-0.001-0.113 0-0.223 0.012-0.444 0.034-0.661l-0.002 0.027c0.028-0.152 0.081-0.288 0.153-0.41l-0.003 0.006c0.125-0.235 0.236-0.486 0.407-0.686 0.342-0.4 0.668-0.85 1.098-1.132 0.54-0.354 1.17-0.577 1.776-0.821 0.433-0.174 0.893-0.282 1.333-0.438 0.139-0.050 0.256-0.163 0.438-0.283-0.028 0.517-0.054 0.98-0.073 1.374-0.069 0.252-0.119 0.438-0.17 0.629l0.048 0.012c-0.101 0.192-0.205 0.383-0.304 0.575s-0.203 0.4-0.299 0.592c0.193-0.044 0.342-0.078 0.49-0.114 0.026-0.007 0.046-0.031 0.073-0.039 0.169-0.047 0.341-0.083 0.51-0.139 0.068-0.029 0.126-0.064 0.179-0.106l-0.002 0.001c0.097 0.018 0.218 0.034 0.34 0.043l0.012 0.001c0.138 0 0.282-0.042 0.413-0.015s0.251 0.114 0.375 0.176c0.011 0.006 0.015 0.026 0.026 0.030 0.149 0.057 0.304 0.102 0.447 0.171 0.085 0.040 0.151 0.118 0.255 0.15l1.54 1.603c-0.287 0.178-0.587 0.365-0.885 0.548-0.219 0.135-0.424 0.282-0.645 0.408-0.156 0.089-0.329 0.146-0.49 0.229-0.223 0.111-0.438 0.244-0.665 0.34-0.325 0.137-0.656 0.253-0.992 0.371-0.090 0.029-0.205 0.058-0.321 0.080l-0.018 0.003c-0.211 0.037-0.391 0.080-0.566 0.133l0.033-0.009c-0.146 0.052-0.268 0.161-0.411 0.219-0.12 0.052-0.26 0.093-0.405 0.113l-0.009 0.001c-0.1 0.013-0.216 0.020-0.334 0.020-0.053 0-0.107-0.002-0.159-0.005l0.007 0c-0.109-0.004-0.212-0.026-0.308-0.063l0.006 0.002c-0.163-0.066-0.299-0.133-0.429-0.209l0.016 0.008c-0.139-0.072-0.258-0.151-0.369-0.24l0.004 0.003c-0.088-0.086-0.167-0.182-0.234-0.285l-0.004-0.006c-0.020-0.027-0.015-0.073-0.021-0.111l-0.077 0.020c-0.023 0.236-0.043 0.438-0.064 0.641-0.009 0.144-0.027 0.277-0.053 0.407l0.003-0.020c-0.023 0.106-0.065 0.199-0.123 0.281l0.002-0.002c-0.262 0.358-0.516 0.669-0.785 0.968l0.010-0.011c-0.21 0.219-0.473 0.392-0.716 0.583s-0.501 0.387-0.76 0.567c-0.173 0.122-0.36 0.223-0.542 0.33-0.004 0.001-0.008 0.001-0.013 0.001-0.021 0-0.039-0.009-0.052-0.022l-0-0c-0.159-0.267-0.313-0.536-0.473-0.802-0.134-0.224-0.295-0.434-0.404-0.669-0.073-0.153-0.073-0.339-0.096-0.51-0.008-0.081-0.013-0.175-0.013-0.271 0-0.010 0-0.020 0-0.031v0.002c-0.112 0.015-0.235 0.007-0.333 0.051-0.399 0.182-0.795 0.37-1.181 0.575-0.497 0.263-0.392 0.754-0.384 1.177 0.009 0.531 0.089 1.061 0.129 1.593-0.014 0.059-0.057 0.105-0.112 0.124l-0.001 0c-0.599 0.012-0.562 0.007-0.603-0.664-0.063-1.040-0.194-2.075-0.273-3.114-0.039-0.502-0.004-1.009-0.043-1.51-0.062-0.82-0.146-1.638-0.246-2.454-0.012-0.104-0.176-0.292-0.227-0.276-0.602 0.164-0.849-0.357-1.214-0.623-0.292-0.214-0.532-0.51-0.823-0.729-0.053-0.039-0.25 0.087-0.365 0.16-0.245 0.154-0.454 0.302-0.654 0.461l0.014-0.011c-0.107 0.102-0.205 0.213-0.292 0.331l-0.005 0.007c-1.004-0.6-1.647-1.507-1.952-2.62-0.219 0.157-0.424 0.298-0.621 0.451-0.106 0.082-0.185 0.202-0.298 0.268-0.097 0.058-0.225 0.064-0.339 0.091-0.011 0-0.028-0.017-0.037-0.013-0.146 0.073-0.284 0.146-0.43 0.212-0.030 0.008-0.065 0.013-0.1 0.013-0.014 0-0.029-0.001-0.043-0.002l0.002 0c-0.048 0-0.097 0-0.146 0-0.066 0-0.133 0.007-0.198 0.006-0.015 0-0.030-0.028-0.042-0.027-0.146 0.021-0.292 0.068-0.438 0.063s-0.279-0.079-0.421-0.093c-0.375-0.035-0.753-0.039-1.126-0.086-0.219-0.027-0.43-0.119-0.647-0.17-0.17-0.039-0.346-0.052-0.515-0.094-0.209-0.051-0.383-0.107-0.552-0.174l0.030 0.010c-0.213-0.079-0.391-0.161-0.561-0.255l0.022 0.011c-0.146-0.079-0.263-0.198-0.402-0.285-0.092-0.055-0.198-0.105-0.309-0.142l-0.012-0.003c-0.227-0.084-0.458-0.157-0.687-0.23-0.040-0.021-0.075-0.045-0.105-0.073l0 0c0.026-0.035 0.050-0.073 0.073-0.104 0.128-0.167 0.255-0.335 0.386-0.499 0.067-0.085 0.134-0.16 0.205-0.231v0c0.11-0.108 0.238-0.2 0.337-0.317 0.096-0.122 0.192-0.26 0.28-0.404l0.011-0.020c0.009-0.014 0.005-0.039 0.015-0.047 0.139-0.106 0.292-0.198 0.417-0.317 0.118-0.121 0.231-0.25 0.336-0.384l0.008-0.010c0.009-0.011 0.015-0.027 0.025-0.032 0.167-0.073 0.34-0.137 0.5-0.224 0.198-0.109 0.38-0.249 0.583-0.354 0.107-0.060 0.235-0.096 0.37-0.1l0.001-0c0.338 0 0.675 0.044 1.012 0.047 0.28 0 0.561-0.047 0.84-0.037 0.167 0.006 0.322 0.056 0.454 0.138l-0.004-0.002c0.277 0.178 0.532 0.392 0.796 0.589 0.606 0.454 0.869 1.094 1.031 1.806 0.018 0.079 0.326 0.106 0.503 0.133 0.23 0.034 0.462 0.046 0.695 0.062 0.049-0.004 0.095-0.015 0.137-0.032l-0.003 0.001c-0.021-0.052-0.027-0.135-0.064-0.153-0.264-0.128-0.558-0.209-0.795-0.372-0.198-0.137-0.35-0.354-0.492-0.557-0.144-0.203-0.28-0.434-0.397-0.677l-0.013-0.029c-0.073-0.146-0.085-0.322-0.125-0.485s-0.086-0.306-0.109-0.462c-0.045-0.302-0.079-0.606-0.11-0.91-0.016-0.093-0.025-0.2-0.025-0.309 0-0.056 0.002-0.111 0.007-0.166l-0 0.007c0.053-0.3 0.112-0.551 0.183-0.796l-0.013 0.053c0.035-0.135 0.074-0.249 0.122-0.36l-0.006 0.015c0.129-0.326 0.25-0.588 0.383-0.842l-0.022 0.047c0.077-0.139 0.219-0.241 0.327-0.365s0.204-0.23 0.308-0.343c0.124-0.135 0.26-0.26 0.371-0.404 0.122-0.159 0.214-0.34 0.333-0.502 0.232-0.318 0.292 0.050 0.376 0.125 0.204 0.177 0.365 0.401 0.549 0.605 0.077 0.088 0.166 0.166 0.234 0.26 0.212 0.286 0.387 0.607 0.634 0.858 0.232 0.219 0.393 0.511 0.444 0.84l0.001 0.008c0.048 0.316 0.158 0.623 0.21 0.939 0.036 0.215 0.057 0.463 0.057 0.716 0 0.032-0 0.064-0.001 0.096l0-0.005c-0.007 0.344-0.073 0.689-0.068 1.033 0.005 0.438-0.25 0.705-0.489 1.025-0.414 0.553-0.984 0.79-1.599 0.987-0.045 0.014-0.080 0.097-0.094 0.154-0.007 0.027 0.046 0.096 0.077 0.099 0.396 0.041 0.793 0.082 1.191 0.106 0.554 0.033 1.184 0.552 1.331 1.085 0.046 0.1 0.136 0.173 0.244 0.195l0.002 0c0.591 0.047 1.41 0.498 1.658 0.875-0.073-0.298-0.134-0.597-0.211-0.892-0.037-0.146-0.105-0.282-0.146-0.425-0.044-0.13-0.078-0.283-0.096-0.441l-0.001-0.011c-0.007-0.087 0.048-0.178 0.103-0.359l-0.778 1.033c-0.069-0.373-0.146-0.692-0.184-1.014-0.010-0.070-0.016-0.151-0.016-0.234 0-0.426 0.157-0.816 0.415-1.115l-0.002 0.002c0.219-0.254 0.517-0.438 0.777-0.656 0.041-0.034 0.098-0.096 0.091-0.135-0.105-0.583-0.219-1.16-0.331-1.741-0.003-0.019-0.005-0.042-0.005-0.065 0-0.035 0.004-0.070 0.012-0.103l-0.001 0.003c0.038-0.006 0.082-0.009 0.127-0.009 0.012 0 0.024 0 0.037 0.001l-0.002-0c-0.022-0.219-0.020-0.453-0.073-0.675-0.32-1.357 0.101-3.129 0.097-4.049-0.007-0.505-0.069-0.992-0.181-1.46l0.009 0.045c-0.030-0.131-0.308-0.196-0.454-0.314-0.28-0.225-0.548-0.466-0.819-0.702-0.193-0.169-0.388-0.338-0.572-0.516-0.055-0.066-0.103-0.14-0.143-0.22l-0.003-0.007c0.088 0.008 0.176 0.015 0.264 0.025 0.044 0.008 0.082 0.018 0.118 0.030l-0.006-0.002c-0.138-0.384-0.266-0.678-0.615-0.962-0.639-0.519-1.345-0.473-2.052-0.538-0.466-0.042-0.939-0.005-1.405-0.039-0.261-0.019-0.517-0.11-0.774-0.174-0.015-0.004-0.023-0.088-0.023-0.088 0.394-0.098 0.788-0.191 1.195-0.254l-0.875 0.337c0.168 0.047 0.317 0.134 0.458 0.121 0.651-0.060 1.299-0.146 1.969-0.133l-0.438-0.128 0.008-0.036 0.802 0.107 0.011-0.073-1.728-0.292c0.843-0.183 1.747 0.109 2.655 0.349l0.009 0.005 0.284 0.287c-0.010-0.166-0.057-0.34-0.026-0.499 0.16-0.809 0.336-1.615 0.51-2.421 0.202-0.924 0.115-1.797-0.438-2.591-0.026-0.037-0.058-0.069-0.084-0.106-0.055-0.077 0.852 0.040 1.108-0.243 0.054-0.060 0.057-0.166 0.085-0.259 0.245 0.033 0.553 0.077 0.863 0.112 0.006 0.001 0.012 0.001 0.019 0.001 0.048 0 0.091-0.019 0.123-0.051v0c0.313-0.534 0.769-0.688 1.361-0.479 0.078 0.028 0.214-0.031 0.292-0.090 0.481-0.377 1.029-0.394 1.587-0.281 0.863 0.175 1.464 0.717 1.904 1.454 0.136 0.227 0.815 0.696 1.057 0.953 0.16 0.168 0.447 0.208 0.648 0.346 0.346 0.238 0.67 0.51 1.044 0.793 0.038 0.112 0.073 0.229 0.117 0.343 0.047 0.096 0.092 0.175 0.14 0.251l-0.006-0.011c-0.048 0.173-0.125 0.448-0.201 0.723-0.16 0.578-0.813 0.598-1.132 1.001-0.284 0.365-0.591 0.705-0.821 1.149 0.195-0.060 0.392-0.114 0.583-0.18 0.179-0.063 0.354-0.139 0.533-0.204 0 0 0.048 0.073 0.040 0.106-0.093 0.365-0.211 0.725-0.279 1.094-0.020 0.106 0.167 0.257 0.14 0.354-0.122 0.442 0.219 0.365 0.438 0.426 0.076 0.018 0.169 0.033 0.263 0.042l0.008 0.001c-0.158 0.254-0.273 0.547-0.483 0.737-0.146 0.131-0.416 0.125-0.634 0.168-0.161 0.033-0.406-0.012-0.475 0.081-0.392 0.529-0.977 0.4-1.497 0.494s-1.048 0.219-1.577 0.279-1.087 0.127-1.615 0.062c-0.26-0.031-0.66-0.518-0.684-0.253-0.123 1.351-0.262 2.703-0.298 4.058-0.019 0.702 0.19 1.407 0.27 2.115 0.060 0.533 0.073 1.072 0.113 1.604 0 0.049 0.035 0.137 0.053 0.137 0.159 0 0.317-0.019 0.476-0.031-0.019-0.044-0.038-0.097-0.052-0.151l-0.002-0.008c-0.133-0.671-0.413-1.343-0.163-2.028 0.146-0.405 0.348-0.825 0.634-1.138 0.257-0.281 0.664-0.426 1.057-0.661-0.057 0.438-0.103 0.789-0.14 1.073 0.496-0.39 1.006-0.833 1.56-1.214 0.352-0.243 0.766-0.395 1.154-0.583 0.006-0.002 0.013-0.004 0.021-0.004 0.015 0 0.029 0.005 0.039 0.014l-0-0c0.021 0.032 0.052 0.078 0.043 0.107-0.096 0.292-0.191 0.588-0.303 0.875-0.105 0.27-0.228 0.533-0.35 0.796-0.096 0.207-0.203 0.409-0.3 0.615-0.003 0.009-0.005 0.020-0.005 0.032 0 0.023 0.007 0.045 0.019 0.063l-0-0c0.016 0.015 0.037 0.024 0.061 0.024 0.007 0 0.015-0.001 0.021-0.003l-0.001 0c0.224-0.098 0.438-0.233 0.669-0.292 0.229-0.050 0.492-0.080 0.763-0.081h0.001c0.041-0.004 0.088-0.006 0.136-0.006 0.123 0 0.242 0.013 0.357 0.039l-0.011-0.002c0.191 0.062 0.354 0.133 0.509 0.218l-0.016-0.008c0.098 0.045 0.193 0.096 0.285 0.146 0.235 0.134 0.47 0.269 0.701 0.409s0.47 0.295 0.707 0.438c0.193 0.116 0.392 0.223 0.549 0.312-0.252 0.206-0.467 0.392-0.694 0.564-0.203 0.155-0.421 0.292-0.628 0.438-0.219 0.16-0.427 0.335-0.648 0.493-0.194 0.15-0.413 0.298-0.642 0.432l-0.030 0.016c-0.205 0.115-0.444 0.219-0.694 0.299l-0.028 0.008c-0.146 0.046-0.317 0.028-0.477 0.034-0.042 0.003-0.091 0.005-0.141 0.005-0.081 0-0.161-0.005-0.239-0.015l0.009 0.001c-0.303-0.052-0.643-0.052-0.895-0.198-0.273-0.158-0.579-0.422-0.667-0.704-0.158-0.502-0.413-0.093-0.696-0.203 0.134 0.2 0.235 0.309 0.284 0.438 0.032 0.085-0.011 0.197-0.020 0.297-0.001 0.113-0.013 0.224-0.035 0.33l0.002-0.011c-0.056 0.155-0.111 0.281-0.172 0.403l0.010-0.022c-0.047 0.112-0.092 0.226-0.133 0.341-0.105 0.287-0.187 0.583-0.318 0.86-0.152 0.315-0.311 0.583-0.49 0.836l0.012-0.018c-0.19 0.261-0.377 0.49-0.576 0.707l0.005-0.006c-0.075 0.074-0.157 0.14-0.245 0.199l-0.006 0.004-0.219-0.188c-0.022 0.055-0.037 0.119-0.042 0.186l-0 0.002c0.073 1.275 0.151 2.552 0.212 3.826 0.039 0.798 0.048 1.596 0.073 2.394 0.010 0.071 0.026 0.135 0.049 0.196l-0.002-0.006c0.058-0.056 0.119-0.11 0.172-0.171 0.057-0.080 0.115-0.15 0.178-0.216l-0 0c0.417-0.337 0.906-0.463 1.432-0.53 0.184-0.020 0.34-0.235 0.623-0.451zM17.098 16.848c-0.056 0.075-0.119 0.14-0.188 0.198l-0.002 0.002c-0.346 0.206-0.723 0.373-1.033 0.623-0.098 0.079-0.026 0.37-0.018 0.564 0.039 0.012 0.083 0.020 0.129 0.020 0.032 0 0.063-0.003 0.093-0.010l-0.003 0.001c0.255-0.093 0.609-0.136 0.729-0.324 0.178-0.285 0.194-0.675 0.292-1.073zM14.752 17.783c0.064 0.186 0.082 0.305 0.111 0.308 0.073 0.008 0.153-0.058 0.229-0.055 0.15 0.002 0.293 0.026 0.429 0.067l-0.011-0.003c0.063 0.020 0.105 0.109 0.156 0.168 0-0.092 0.025-0.199-0.012-0.275-0.157-0.319-0.331-0.629-0.505-0.939-0.015-0.027-0.12-0.038-0.121-0.034-0.105 0.281-0.204 0.564-0.275 0.764zM19.25 9.275c-0.033-0.069-0.186-0.15-0.219-0.219-0.365 0.073-0.622 0.236-1.167 0.51-0.219 0.146-0.323 0.284-0.301 0.33zM14.671 18.622c0.355-0.035 0.617-0.060 0.875-0.090 0.017 0 0.045-0.055 0.042-0.059-0.116-0.114-0.292-0.342-0.343-0.317-0.191 0.093-0.346 0.271-0.574 0.465zM21.107 26.225c-0.343 0.164-0.672 0.323-1.001 0.479-0.106 0.050-0.219 0.093-0.325 0.139 0.127-0.016 0.253-0.035 0.38-0.047 0.152-0.015 0.315 0.005 0.454-0.044 0.106-0.038 0.185-0.157 0.268-0.248s0.161-0.198 0.225-0.279zM14.748 18.408c-0.199 0.020-0.3 0-0.356 0.044-0.089 0.080-0.166 0.169-0.232 0.268l-0.003 0.005c-0.008 0.010 0.012 0.060 0.016 0.060 0.008 0.001 0.018 0.001 0.027 0.001 0.054 0 0.106-0.011 0.152-0.032l-0.002 0.001c0.115-0.084 0.217-0.187 0.397-0.346z"></path>
<path d="M14.748 18.408c-0.18 0.16-0.282 0.263-0.397 0.346-0.044 0.020-0.096 0.031-0.15 0.031-0.010 0-0.019-0-0.029-0.001l0.001 0c-0.004 0-0.024-0.050-0.016-0.060z"></path>
</symbol>
</defs>
</svg>
